<svg width="50" height="50" viewBox="0 0 50 50" fill="none" xmlns="http://www.w3.org/2000/svg">
<mask id="mask0_8246_146" style="mask-type:alpha" maskUnits="userSpaceOnUse" x="0" y="0" width="50" height="50">
<rect width="50" height="50" fill="#D9D9D9"/>
</mask>
<g mask="url(#mask0_8246_146)">
<path d="M10.4168 20.032H39.5835V13.7826C39.5835 13.4617 39.45 13.1678 39.183 12.9008C38.916 12.6338 38.622 12.5003 38.3012 12.5003H11.6991C11.3783 12.5003 11.0844 12.6338 10.8174 12.9008C10.5503 13.1678 10.4168 13.4617 10.4168 13.7826V20.032ZM11.6991 43.7503C10.7401 43.7503 9.9394 43.4291 9.29704 42.7867C8.65468 42.1444 8.3335 41.3437 8.3335 40.3846V13.7826C8.3335 12.8235 8.65468 12.0228 9.29704 11.3805C9.9394 10.7381 10.7401 10.4169 11.6991 10.4169H15.3845V5.76953H17.6283V10.4169H32.5325V5.76953H34.6158V10.4169H38.3012C39.2602 10.4169 40.0609 10.7381 40.7033 11.3805C41.3457 12.0228 41.6668 12.8235 41.6668 13.7826V24.7237C41.3276 24.5983 40.9844 24.5049 40.6371 24.4435C40.2899 24.382 39.9387 24.326 39.5835 24.2753V22.1159H10.4168V40.3846C10.4168 40.7055 10.5503 40.9994 10.8174 41.2664C11.0844 41.5334 11.3783 41.6669 11.6991 41.6669H25.6653C25.7746 42.0569 25.9142 42.4188 26.084 42.7529C26.2535 43.0865 26.4304 43.419 26.6147 43.7503H11.6991ZM38.3012 45.8336C35.9804 45.8336 34.0113 45.0249 32.3939 43.4076C30.7766 41.7905 29.9679 39.8214 29.9679 37.5003C29.9679 35.1791 30.7766 33.21 32.3939 31.593C34.0113 29.9756 35.9804 29.1669 38.3012 29.1669C40.6224 29.1669 42.5917 29.9756 44.209 31.593C45.826 33.21 46.6345 35.1791 46.6345 37.5003C46.6345 39.8214 45.826 41.7905 44.209 43.4076C42.5917 45.0249 40.6224 45.8336 38.3012 45.8336ZM41.7512 42.0878L42.8887 40.9497L39.1028 37.1638V31.4909H37.5002V37.8367L41.7512 42.0878Z" fill="#1C1B1F"/>
</g>
</svg>
