<svg width="51" height="51" viewBox="0 0 51 51" fill="none" xmlns="http://www.w3.org/2000/svg">
<mask id="mask0_8246_176" style="mask-type:alpha" maskUnits="userSpaceOnUse" x="0" y="0" width="51" height="51">
<rect width="51" height="51" fill="#D9D9D9"/>
</mask>
<g mask="url(#mask0_8246_176)">
<path d="M25.5 42.5C22.7648 42.5 20.1418 42.0178 17.6311 41.0534C15.1208 40.089 12.8359 38.6955 10.7764 36.873L12.2921 35.3568C14.1256 36.9994 16.1771 38.2465 18.4466 39.0979C20.7161 39.9493 23.0849 40.375 25.5531 40.375C27.994 40.375 30.3471 39.9581 32.6124 39.1244C34.878 38.2907 36.9275 37.0662 38.7611 35.4508L40.2645 36.9139C38.1969 38.7364 35.9029 40.123 33.3827 41.0736C30.8628 42.0245 28.2352 42.5 25.5 42.5ZM25.5 34.4903C23.8436 34.4903 22.2484 34.2003 20.7145 33.6202C19.181 33.0397 17.7875 32.2182 16.5341 31.1557L18.0381 29.6517C19.0924 30.5428 20.2659 31.2178 21.5587 31.6768C22.8514 32.1358 24.1788 32.3653 25.5409 32.3653C26.903 32.3653 28.2237 32.1358 29.503 31.6768C30.7819 31.2178 31.9485 30.5428 33.0028 29.6517L34.5068 31.1557C33.2261 32.2455 31.8258 33.0737 30.3057 33.6403C28.7856 34.207 27.1837 34.4903 25.5 34.4903ZM10.625 10.625V13.0767C10.625 13.4582 10.7475 13.7716 10.9926 14.017C11.2381 14.2621 11.5515 14.3847 11.9329 14.3847H39.0671C39.4485 14.3847 39.7619 14.2621 40.0074 14.017C40.2525 13.7716 40.375 13.4582 40.375 13.0767V10.625H10.625ZM15.9864 16.5097L17.0329 19.4108C17.1417 19.6835 17.3051 19.8948 17.5233 20.0446C17.7411 20.1944 17.9862 20.2693 18.2585 20.2693H32.7415C33.0138 20.2693 33.2589 20.1944 33.4767 20.0446C33.6949 19.8948 33.8583 19.6835 33.9671 19.4108L35.0136 16.5097H15.9864ZM18.2585 22.3943C17.5286 22.3943 16.8667 22.1878 16.2727 21.7749C15.6788 21.3623 15.2538 20.8087 14.9977 20.1142L13.7307 16.5097H11.9329C10.982 16.5097 10.172 16.1751 9.503 15.5061C8.83433 14.8375 8.5 14.0277 8.5 13.0767V8.5H42.5V13.0767C42.5 14.0277 42.1657 14.8375 41.497 15.5061C40.828 16.1751 40.018 16.5097 39.0671 16.5097H37.2693L35.8472 20.1631C35.5829 20.814 35.1647 21.3486 34.5923 21.7669C34.0204 22.1852 33.3735 22.3943 32.6517 22.3943H18.2585Z" fill="#1C1B1F"/>
</g>
</svg>
