<svg width="55" height="55" viewBox="0 0 55 55" fill="none" xmlns="http://www.w3.org/2000/svg">
<mask id="mask0_8246_104" style="mask-type:alpha" maskUnits="userSpaceOnUse" x="0" y="0" width="55" height="55">
<rect width="55" height="55" fill="#D9D9D9"/>
</mask>
<g mask="url(#mask0_8246_104)">
<path d="M10.5772 43.5423C9.52226 43.5423 8.64149 43.189 7.9349 42.4824C7.2283 41.7758 6.875 40.8951 6.875 39.8401V15.1612C6.875 14.1062 7.2283 13.2255 7.9349 12.5189C8.64149 11.8123 9.52226 11.459 10.5772 11.459H45.2163C46.0065 11.459 46.7036 11.6727 47.3074 12.1001C47.9113 12.5275 48.3307 13.0777 48.5656 13.7507H10.5772C10.2243 13.7507 9.90095 13.8975 9.60724 14.1912C9.31352 14.4849 9.16667 14.8083 9.16667 15.1612V39.8401C9.16667 40.193 9.31352 40.5164 9.60724 40.8101C9.90095 41.1038 10.2243 41.2506 10.5772 41.2506H16.0417V43.5423H10.5772ZM46.2739 40.5013V23.1379C46.2739 22.932 46.2006 22.7558 46.0539 22.6091C45.9069 22.462 45.7306 22.3885 45.5251 22.3885H36.9749C36.7694 22.3885 36.5931 22.462 36.4461 22.6091C36.2994 22.7558 36.2261 22.932 36.2261 23.1379V40.5013C36.2261 40.7071 36.2994 40.8834 36.4461 41.0301C36.5931 41.1771 36.7694 41.2506 36.9749 41.2506H45.5251C45.7306 41.2506 45.9069 41.1771 46.0539 41.0301C46.2006 40.8834 46.2739 40.7071 46.2739 40.5013ZM36.7108 43.5423C35.9396 43.5423 35.284 43.2725 34.744 42.7328C34.2043 42.1927 33.9344 41.5371 33.9344 40.766V22.8732C33.9344 22.1021 34.2043 21.4465 34.744 20.9064C35.284 20.3667 35.9396 20.0968 36.7108 20.0968H45.7892C46.5604 20.0968 47.216 20.3667 47.756 20.9064C48.2957 21.4465 48.5656 22.1021 48.5656 22.8732V40.766C48.5656 41.5371 48.2957 42.1927 47.756 42.7328C47.216 43.2725 46.5604 43.5423 45.7892 43.5423H36.7108ZM41.242 28.6465C41.685 28.6465 42.0542 28.4931 42.3494 28.1864C42.6447 27.8793 42.7923 27.5213 42.7923 27.1122C42.7923 26.6692 42.6449 26.2998 42.35 26.0042C42.0551 25.7089 41.6822 25.5613 41.2311 25.5613C40.8148 25.5613 40.4567 25.7089 40.1569 26.0042C39.8574 26.2991 39.7077 26.672 39.7077 27.1231C39.7077 27.5394 39.8611 27.8973 40.1678 28.1967C40.4745 28.4966 40.8325 28.6465 41.242 28.6465ZM22.4761 43.5423L21.4626 40.0166C20.7953 39.4849 20.2686 38.8305 19.8825 38.0532C19.496 37.2763 19.3027 36.4317 19.3027 35.5192C19.3027 34.6071 19.496 33.7632 19.8825 32.9875C20.2686 32.2117 20.7953 31.558 21.4626 31.0264L22.4761 27.5007H27.5882L28.6017 31.0264C29.2686 31.558 29.7953 32.2125 30.1818 32.9898C30.568 33.7666 30.761 34.6113 30.761 35.5238C30.761 36.4359 30.568 37.2798 30.1818 38.0555C29.7953 38.8312 29.2686 39.4849 28.6017 40.0166L27.5882 43.5423H22.4761ZM25.0319 39.2237C26.1013 39.2237 26.9857 38.8637 27.6851 38.1437C28.3844 37.4238 28.7341 36.5497 28.7341 35.5215C28.7341 34.4933 28.3638 33.6192 27.6232 32.8992C26.883 32.1793 26.0192 31.8193 25.0319 31.8193C24.0449 31.8193 23.1812 32.169 22.4406 32.8683C21.7004 33.5676 21.3303 34.452 21.3303 35.5215C21.3303 36.5909 21.6799 37.4753 22.3793 38.1747C23.0782 38.874 23.9624 39.2237 25.0319 39.2237Z" fill="#1C1B1F"/>
</g>
</svg>
