<svg width="43" height="43" viewBox="0 0 43 43" fill="none" xmlns="http://www.w3.org/2000/svg">
<mask id="mask0_8246_134" style="mask-type:alpha" maskUnits="userSpaceOnUse" x="0" y="0" width="43" height="43">
<rect width="43" height="43" fill="#D9D9D9"/>
</mask>
<g mask="url(#mask0_8246_134)">
<path d="M21.5 23.2917C20.4892 23.2917 19.6394 22.9471 18.9505 22.2579C18.2613 21.569 17.9167 20.7191 17.9167 19.7083V8.95833C17.9167 7.94753 18.2613 7.09769 18.9505 6.40879C19.6394 5.7196 20.4892 5.375 21.5 5.375C22.5108 5.375 23.3606 5.7196 24.0495 6.40879C24.7387 7.09769 25.0833 7.94753 25.0833 8.95833V19.7083C25.0833 20.7191 24.7387 21.569 24.0495 22.2579C23.3606 22.9471 22.5108 23.2917 21.5 23.2917ZM20.6042 36.7292V30.4274C17.7972 30.17 15.4531 29.0226 13.5719 26.9852C11.6906 24.9478 10.75 22.5221 10.75 19.7083H12.5417C12.5417 22.1868 13.4151 24.2995 15.162 26.0464C16.9089 27.7932 19.0215 28.6667 21.5 28.6667C23.9785 28.6667 26.0911 27.7932 27.838 26.0464C29.5849 24.2995 30.4583 22.1868 30.4583 19.7083H32.25C32.25 22.5221 31.3094 24.9478 29.4281 26.9852C27.5469 29.0226 25.2028 30.17 22.3958 30.4274V36.7292H20.6042ZM21.5 21.5C22.0076 21.5 22.4332 21.3283 22.7766 20.9849C23.12 20.6415 23.2917 20.216 23.2917 19.7083V8.95833C23.2917 8.45069 23.12 8.02517 22.7766 7.68177C22.4332 7.33837 22.0076 7.16667 21.5 7.16667C20.9924 7.16667 20.5668 7.33837 20.2234 7.68177C19.88 8.02517 19.7083 8.45069 19.7083 8.95833V19.7083C19.7083 20.216 19.88 20.6415 20.2234 20.9849C20.5668 21.3283 20.9924 21.5 21.5 21.5Z" fill="#1C1B1F"/>
</g>
</svg>
