<?xml version="1.0" encoding="UTF-8"?>
<svg xmlns="http://www.w3.org/2000/svg" xmlns:xlink="http://www.w3.org/1999/xlink" width="331.37pt" height="48.04pt" viewBox="0 0 331.37 48.04" version="1.1">
<defs>
<clipPath id="clip1">
  <path d="M 315 18 L 331.371094 18 L 331.371094 40 L 315 40 Z M 315 18 "/>
</clipPath>
<clipPath id="clip2">
  <path d="M 22 18 L 43 18 L 43 48.039063 L 22 48.039063 Z M 22 18 "/>
</clipPath>
</defs>
<g id="surface1">
<path style=" stroke:none;fill-rule:nonzero;fill:rgb(59.606934%,58.430481%,50.979614%);fill-opacity:1;" d="M 69.769531 22.339844 L 75.53125 35.582031 C 75.671875 35.910156 75.792969 36.074219 75.917969 36.0625 C 76.015625 36.0625 76.195313 35.769531 76.457031 35.210938 L 76.691406 34.648438 L 79.953125 26.839844 C 81.359375 23.492188 82.058594 21.332031 82.058594 20.375 C 82.058594 20.042969 81.988281 19.8125 81.839844 19.675781 C 81.6875 19.546875 81.382813 19.433594 80.921875 19.34375 C 80.371094 19.238281 80.097656 19.09375 80.105469 18.929688 C 80.113281 18.742188 80.28125 18.652344 80.601563 18.652344 C 80.671875 18.652344 80.816406 18.652344 81.035156 18.667969 C 81.785156 18.710938 82.230469 18.742188 82.382813 18.742188 L 82.996094 18.742188 L 83.667969 18.722656 L 85.332031 18.722656 C 85.527344 18.722656 85.628906 18.820313 85.628906 19 C 85.628906 19.152344 85.527344 19.261719 85.316406 19.34375 C 84.59375 19.609375 84.050781 20.183594 83.671875 21.070313 L 83.269531 22.042969 L 75.847656 39.4375 C 75.640625 39.921875 75.441406 40.160156 75.25 40.160156 C 75.042969 40.160156 74.839844 39.914063 74.628906 39.414063 L 67.03125 21.773438 C 66.671875 20.953125 66.34375 20.394531 66.054688 20.074219 C 65.765625 19.75 65.371094 19.546875 64.867188 19.453125 C 64.359375 19.363281 64.046875 19.292969 63.945313 19.246094 C 63.851563 19.210938 63.804688 19.128906 63.804688 19.011719 C 63.804688 18.824219 63.945313 18.722656 64.222656 18.722656 C 64.304688 18.722656 64.445313 18.742188 64.652344 18.757813 C 64.828125 18.773438 65.328125 18.789063 66.167969 18.789063 L 67.582031 18.804688 L 68.585938 18.789063 C 68.792969 18.789063 69.113281 18.761719 69.542969 18.722656 C 69.738281 18.699219 69.886719 18.6875 69.964844 18.6875 C 70.226563 18.6875 70.367188 18.789063 70.367188 18.972656 C 70.367188 19.105469 70.261719 19.222656 70.058594 19.300781 C 69.652344 19.453125 69.398438 19.582031 69.292969 19.6875 C 69.195313 19.78125 69.140625 19.96875 69.140625 20.230469 C 69.140625 20.664063 69.347656 21.367188 69.769531 22.339844 "/>
<path style=" stroke:none;fill-rule:nonzero;fill:rgb(59.606934%,58.430481%,50.979614%);fill-opacity:1;" d="M 116.375 31.457031 L 110.957031 31.457031 C 110.203125 31.457031 109.753906 31.515625 109.570313 31.632813 C 109.386719 31.757813 109.144531 32.15625 108.851563 32.832031 L 107.863281 35.027344 C 107.414063 36.035156 107.191406 36.785156 107.191406 37.269531 C 107.191406 37.734375 107.304688 38.082031 107.539063 38.285156 C 107.777344 38.5 108.234375 38.671875 108.917969 38.824219 C 109.214844 38.886719 109.371094 39 109.382813 39.179688 C 109.386719 39.355469 109.246094 39.4375 108.960938 39.4375 C 108.855469 39.4375 108.679688 39.4375 108.453125 39.421875 L 107.027344 39.347656 C 106.550781 39.328125 106 39.320313 105.375 39.320313 C 105.089844 39.320313 104.867188 39.328125 104.710938 39.34375 C 104.203125 39.40625 103.921875 39.4375 103.871094 39.4375 C 103.601563 39.4375 103.476563 39.34375 103.476563 39.15625 C 103.476563 38.984375 103.558594 38.875 103.730469 38.824219 L 104.28125 38.660156 C 104.480469 38.601563 104.746094 38.359375 105.089844 37.929688 C 105.429688 37.507813 105.703125 37.066406 105.925781 36.605469 L 106.359375 35.621094 L 114.0625 18.527344 C 114.1875 18.222656 114.332031 18.078125 114.5 18.078125 C 114.652344 18.078125 114.792969 18.21875 114.898438 18.507813 L 121.359375 35.019531 L 121.6875 35.835938 C 122.15625 37.039063 122.542969 37.792969 122.855469 38.09375 C 123.160156 38.378906 123.789063 38.621094 124.730469 38.785156 C 125.039063 38.839844 125.183594 38.964844 125.175781 39.148438 C 125.167969 39.316406 125.03125 39.394531 124.757813 39.394531 C 124.675781 39.394531 124.480469 39.382813 124.199219 39.367188 C 123.675781 39.308594 122.765625 39.285156 121.445313 39.285156 C 120.0625 39.285156 119.199219 39.316406 118.859375 39.371094 C 118.644531 39.414063 118.492188 39.4375 118.394531 39.4375 C 118.132813 39.4375 118.007813 39.328125 118.007813 39.128906 C 118.007813 38.96875 118.132813 38.875 118.378906 38.824219 L 118.835938 38.722656 C 119.328125 38.621094 119.574219 38.269531 119.574219 37.695313 C 119.574219 37.164063 119.269531 36.117188 118.65625 34.523438 L 117.898438 32.546875 C 117.6875 31.992188 117.519531 31.667969 117.402344 31.585938 C 117.277344 31.503906 116.9375 31.457031 116.375 31.457031 M 116.558594 29.054688 L 114.210938 23.132813 L 114.082031 22.824219 C 113.964844 22.507813 113.835938 22.339844 113.699219 22.332031 C 113.621094 22.320313 113.542969 22.414063 113.457031 22.617188 L 110.53125 29.082031 C 110.394531 29.359375 110.335938 29.546875 110.335938 29.636719 C 110.335938 29.894531 110.570313 30.023438 111.023438 30.023438 L 111.433594 30.042969 L 115.964844 30.042969 C 116.460938 30.042969 116.714844 29.914063 116.714844 29.667969 C 116.714844 29.597656 116.683594 29.480469 116.632813 29.324219 L 116.558594 29.054688 "/>
<path style=" stroke:none;fill-rule:nonzero;fill:rgb(59.606934%,58.430481%,50.979614%);fill-opacity:1;" d="M 165.453125 24.578125 L 165.453125 37.109375 C 165.453125 38.230469 165.425781 38.921875 165.378906 39.167969 C 165.320313 39.40625 165.1875 39.519531 164.960938 39.515625 C 164.8125 39.5 164.695313 39.460938 164.609375 39.378906 L 164.277344 38.988281 L 151.675781 24.570313 L 151.519531 24.402344 C 151.464844 24.347656 151.394531 24.308594 151.3125 24.308594 C 151.125 24.308594 151.027344 24.539063 151.027344 24.988281 L 151.027344 35.191406 L 151.015625 35.835938 L 151.054688 36.894531 C 151.136719 37.554688 151.289063 38.023438 151.5625 38.273438 C 151.832031 38.515625 152.367188 38.703125 153.144531 38.824219 C 153.46875 38.859375 153.636719 38.980469 153.636719 39.203125 C 153.636719 39.378906 153.527344 39.480469 153.320313 39.480469 C 153.179688 39.480469 153.027344 39.472656 152.871094 39.441406 C 152.761719 39.421875 152.328125 39.398438 151.566406 39.363281 L 150.039063 39.285156 L 149.316406 39.308594 C 148.925781 39.308594 148.554688 39.328125 148.207031 39.378906 C 147.945313 39.414063 147.765625 39.433594 147.652344 39.433594 C 147.394531 39.433594 147.253906 39.351563 147.230469 39.167969 C 147.222656 39.027344 147.363281 38.910156 147.652344 38.824219 C 148.492188 38.539063 149.058594 38.144531 149.359375 37.65625 C 149.652344 37.171875 149.800781 36.386719 149.800781 35.300781 L 149.800781 25.066406 C 149.800781 23.335938 149.523438 21.972656 148.976563 20.972656 C 148.433594 19.96875 147.632813 19.402344 146.601563 19.261719 C 146.328125 19.222656 146.199219 19.109375 146.199219 18.925781 C 146.199219 18.742188 146.304688 18.652344 146.53125 18.652344 C 146.578125 18.652344 146.652344 18.652344 146.765625 18.667969 L 147.382813 18.6875 L 148.378906 18.726563 L 148.617188 18.707031 C 148.859375 18.695313 149.046875 18.6875 149.175781 18.6875 C 149.429688 18.6875 149.675781 18.832031 149.921875 19.125 L 163.699219 34.710938 C 163.925781 34.964844 164.0625 35.085938 164.113281 35.070313 C 164.222656 35.058594 164.277344 34.964844 164.285156 34.789063 L 164.285156 27.34375 L 164.292969 25.316406 L 164.113281 21.855469 C 164.015625 21.011719 163.769531 20.410156 163.378906 20.054688 C 162.992188 19.699219 162.273438 19.429688 161.246094 19.261719 C 160.957031 19.21875 160.808594 19.105469 160.808594 18.914063 C 160.808594 18.742188 160.957031 18.652344 161.246094 18.652344 C 161.375 18.652344 161.589844 18.667969 161.875 18.6875 C 162.5625 18.761719 163.492188 18.804688 164.648438 18.804688 C 165.273438 18.804688 165.765625 18.769531 166.140625 18.726563 C 166.457031 18.671875 166.699219 18.652344 166.875 18.652344 C 167.128906 18.652344 167.269531 18.753906 167.285156 18.972656 C 167.300781 19.105469 167.207031 19.199219 166.988281 19.261719 C 166.375 19.410156 165.972656 19.660156 165.777344 20.007813 C 165.574219 20.359375 165.476563 21.011719 165.476563 21.972656 L 165.476563 23.585938 L 165.453125 24.578125 "/>
<path style=" stroke:none;fill-rule:nonzero;fill:rgb(59.606934%,58.430481%,50.979614%);fill-opacity:1;" d="M 205.902344 20.339844 L 201.707031 20.339844 C 201.265625 20.339844 200.988281 20.402344 200.875 20.523438 C 200.757813 20.640625 200.699219 20.9375 200.699219 21.40625 L 200.699219 36.183594 L 200.714844 36.769531 C 200.765625 37.941406 201.414063 38.640625 202.679688 38.863281 C 203.023438 38.921875 203.195313 39.03125 203.195313 39.199219 C 203.195313 39.40625 203.054688 39.515625 202.777344 39.515625 C 202.65625 39.515625 202.402344 39.484375 202.039063 39.421875 C 201.847656 39.394531 201.40625 39.371094 200.695313 39.371094 L 199.597656 39.359375 L 198.429688 39.371094 C 198 39.371094 197.660156 39.394531 197.367188 39.421875 C 196.789063 39.484375 196.457031 39.515625 196.359375 39.515625 C 196.058594 39.515625 195.910156 39.40625 195.910156 39.199219 C 195.910156 39.039063 196.074219 38.9375 196.40625 38.898438 C 197.171875 38.796875 197.6875 38.589844 197.953125 38.261719 C 198.222656 37.933594 198.367188 37.347656 198.367188 36.507813 L 198.367188 21.570313 L 198.355469 21.175781 C 198.355469 20.8125 198.300781 20.59375 198.183594 20.488281 C 198.089844 20.386719 197.84375 20.339844 197.460938 20.339844 L 193.492188 20.339844 C 192.6875 20.339844 192.09375 20.492188 191.730469 20.820313 C 191.367188 21.140625 191.085938 21.753906 190.890625 22.648438 C 190.796875 23.039063 190.652344 23.222656 190.472656 23.210938 C 190.285156 23.207031 190.195313 23.066406 190.195313 22.8125 C 190.195313 22.609375 190.253906 22.230469 190.382813 21.671875 C 190.535156 20.960938 190.617188 20.375 190.617188 19.914063 C 190.617188 19.457031 190.664063 19.15625 190.769531 19.011719 C 190.882813 18.875 191.109375 18.804688 191.441406 18.804688 L 207.582031 18.804688 C 208.140625 18.804688 208.46875 18.867188 208.582031 18.984375 C 208.699219 19.105469 208.753906 19.453125 208.753906 20.039063 C 208.753906 20.621094 208.777344 21.050781 208.824219 21.320313 C 208.875 21.65625 208.894531 21.890625 208.90625 22.050781 C 208.921875 22.34375 208.820313 22.503906 208.582031 22.527344 C 208.402344 22.53125 208.285156 22.378906 208.222656 22.058594 C 208.089844 21.339844 207.886719 20.875 207.589844 20.660156 C 207.304688 20.441406 206.738281 20.339844 205.902344 20.339844 "/>
<path style=" stroke:none;fill-rule:nonzero;fill:rgb(59.606934%,58.430481%,50.979614%);fill-opacity:1;" d="M 241.332031 31.457031 L 235.914063 31.457031 C 235.167969 31.457031 234.699219 31.515625 234.523438 31.632813 C 234.347656 31.757813 234.109375 32.15625 233.8125 32.832031 L 232.820313 35.027344 C 232.371094 36.035156 232.148438 36.785156 232.148438 37.269531 C 232.148438 37.734375 232.269531 38.082031 232.5 38.285156 C 232.730469 38.5 233.183594 38.671875 233.875 38.824219 C 234.171875 38.886719 234.328125 39 234.332031 39.179688 C 234.347656 39.355469 234.207031 39.4375 233.917969 39.4375 C 233.8125 39.4375 233.644531 39.4375 233.410156 39.421875 L 231.980469 39.347656 C 231.511719 39.328125 230.964844 39.320313 230.335938 39.320313 C 230.046875 39.320313 229.820313 39.328125 229.660156 39.34375 C 229.15625 39.40625 228.882813 39.4375 228.824219 39.4375 C 228.558594 39.4375 228.429688 39.34375 228.429688 39.15625 C 228.429688 38.984375 228.515625 38.875 228.679688 38.824219 L 229.238281 38.660156 C 229.433594 38.601563 229.707031 38.359375 230.046875 37.929688 C 230.378906 37.507813 230.664063 37.066406 230.886719 36.605469 L 231.316406 35.621094 L 239.011719 18.527344 C 239.144531 18.222656 239.289063 18.078125 239.449219 18.078125 C 239.609375 18.078125 239.753906 18.21875 239.855469 18.507813 L 246.316406 35.019531 L 246.648438 35.835938 C 247.117188 37.039063 247.503906 37.792969 247.8125 38.09375 C 248.117188 38.378906 248.742188 38.621094 249.691406 38.785156 C 250 38.839844 250.140625 38.964844 250.140625 39.148438 C 250.128906 39.316406 249.984375 39.394531 249.726563 39.394531 C 249.628906 39.394531 249.433594 39.382813 249.15625 39.367188 C 248.636719 39.308594 247.71875 39.285156 246.402344 39.285156 C 245.027344 39.285156 244.160156 39.316406 243.8125 39.371094 C 243.605469 39.414063 243.453125 39.4375 243.355469 39.4375 C 243.09375 39.4375 242.964844 39.328125 242.964844 39.128906 C 242.964844 38.96875 243.085938 38.875 243.34375 38.824219 L 243.792969 38.722656 C 244.292969 38.621094 244.539063 38.269531 244.539063 37.695313 C 244.539063 37.164063 244.230469 36.117188 243.613281 34.523438 L 242.855469 32.546875 C 242.644531 31.992188 242.480469 31.667969 242.355469 31.585938 C 242.242188 31.503906 241.898438 31.457031 241.332031 31.457031 M 241.515625 29.054688 L 239.160156 23.132813 L 239.042969 22.824219 C 238.921875 22.507813 238.789063 22.339844 238.652344 22.332031 C 238.582031 22.320313 238.5 22.414063 238.414063 22.617188 L 235.488281 29.082031 C 235.359375 29.359375 235.296875 29.546875 235.296875 29.636719 C 235.296875 29.894531 235.523438 30.023438 235.980469 30.023438 L 236.382813 30.042969 L 240.910156 30.042969 C 241.414063 30.042969 241.664063 29.914063 241.664063 29.667969 C 241.664063 29.597656 241.644531 29.480469 241.589844 29.324219 L 241.515625 29.054688 "/>
<path style=" stroke:none;fill-rule:nonzero;fill:rgb(59.606934%,58.430481%,50.979614%);fill-opacity:1;" d="M 287.824219 34.195313 L 287.824219 30.820313 C 287.824219 30.210938 287.699219 29.796875 287.425781 29.578125 C 287.164063 29.359375 286.628906 29.21875 285.828125 29.15625 C 285.4375 29.121094 285.230469 28.992188 285.230469 28.777344 C 285.21875 28.59375 285.386719 28.511719 285.738281 28.511719 L 286.332031 28.519531 L 287.464844 28.535156 C 289.011719 28.535156 289.90625 28.527344 290.152344 28.511719 C 290.851563 28.453125 291.246094 28.433594 291.355469 28.433594 C 291.585938 28.433594 291.703125 28.519531 291.703125 28.691406 C 291.703125 28.851563 291.554688 28.964844 291.261719 29.046875 C 290.511719 29.226563 290.132813 29.777344 290.132813 30.707031 L 290.148438 31.179688 L 290.148438 36.011719 L 290.175781 36.484375 L 290.089844 36.710938 C 290.027344 36.769531 289.886719 36.808594 289.652344 36.835938 C 289.386719 36.875 288.96875 37.0625 288.414063 37.378906 L 287.414063 37.964844 C 285.46875 39.101563 283.375 39.664063 281.132813 39.664063 C 278.132813 39.664063 275.675781 38.707031 273.753906 36.785156 C 271.839844 34.863281 270.878906 32.410156 270.878906 29.414063 C 270.878906 26.273438 271.894531 23.65625 273.929688 21.558594 C 275.964844 19.46875 278.503906 18.414063 281.5625 18.414063 C 282.742188 18.414063 283.988281 18.589844 285.316406 18.929688 C 286.644531 19.261719 287.699219 19.6875 288.484375 20.195313 C 288.605469 20.273438 288.6875 20.3125 288.742188 20.3125 C 288.804688 20.3125 288.902344 20.273438 289.027344 20.195313 L 289.386719 19.929688 C 289.445313 19.871094 289.527344 19.839844 289.59375 19.839844 C 289.773438 19.839844 289.859375 20.070313 289.859375 20.539063 C 289.859375 20.753906 289.898438 21.101563 289.953125 21.554688 L 290.109375 22.957031 C 290.164063 23.335938 290.234375 23.714844 290.324219 24.089844 C 290.375 24.273438 290.390625 24.414063 290.390625 24.53125 C 290.390625 24.773438 290.300781 24.886719 290.109375 24.902344 C 289.980469 24.90625 289.882813 24.824219 289.785156 24.652344 C 289.003906 23.066406 287.804688 21.773438 286.183594 20.78125 C 284.558594 19.796875 282.839844 19.300781 281.03125 19.300781 C 278.761719 19.300781 276.90625 20.15625 275.484375 21.871094 C 274.046875 23.578125 273.332031 25.789063 273.332031 28.484375 C 273.332031 31.390625 274.15625 33.820313 275.796875 35.769531 C 277.441406 37.738281 279.484375 38.707031 281.917969 38.707031 C 284.230469 38.707031 286.046875 37.886719 287.355469 36.246094 C 287.675781 35.851563 287.824219 35.164063 287.824219 34.195313 "/>
<g clip-path="url(#clip1)" clip-rule="nonzero">
<path style=" stroke:none;fill-rule:nonzero;fill:rgb(59.606934%,58.430481%,50.979614%);fill-opacity:1;" d="M 320.433594 21.179688 L 320.433594 27.21875 C 320.433594 27.683594 320.476563 27.964844 320.5625 28.054688 C 320.648438 28.152344 320.902344 28.203125 321.335938 28.203125 L 323.628906 28.203125 C 324.667969 28.203125 325.492188 28.144531 326.09375 28.019531 C 326.632813 27.910156 326.976563 27.769531 327.140625 27.589844 C 327.296875 27.40625 327.4375 26.988281 327.570313 26.332031 C 327.617188 26.082031 327.753906 25.957031 327.957031 25.96875 C 328.167969 25.984375 328.261719 26.117188 328.261719 26.371094 C 328.261719 26.449219 328.261719 26.554688 328.242188 26.703125 C 328.148438 27.660156 328.101563 28.535156 328.101563 29.328125 C 328.101563 29.921875 328.144531 30.53125 328.21875 31.117188 C 328.253906 31.316406 328.261719 31.457031 328.261719 31.546875 C 328.261719 31.796875 328.167969 31.917969 327.957031 31.917969 C 327.746094 31.917969 327.613281 31.808594 327.570313 31.597656 L 327.480469 31.179688 C 327.359375 30.515625 327.125 30.058594 326.769531 29.820313 C 326.40625 29.585938 325.800781 29.46875 324.945313 29.46875 L 321.648438 29.46875 C 321.160156 29.46875 320.828125 29.515625 320.667969 29.617188 C 320.503906 29.714844 320.421875 29.917969 320.421875 30.214844 L 320.433594 30.714844 L 320.433594 36.257813 C 320.433594 37.109375 320.585938 37.644531 320.890625 37.859375 C 321.199219 38.066406 321.972656 38.171875 323.203125 38.171875 C 327.125 38.171875 329.632813 37.285156 330.753906 35.523438 C 330.855469 35.355469 330.980469 35.261719 331.089844 35.253906 C 331.277344 35.242188 331.367188 35.378906 331.367188 35.640625 C 331.367188 36.296875 331 37.050781 330.277344 37.945313 C 329.394531 39.019531 328.289063 39.550781 326.949219 39.550781 C 326.667969 39.550781 326.277344 39.53125 325.785156 39.488281 C 323.882813 39.296875 322.304688 39.207031 321.050781 39.207031 C 319.3125 39.207031 318.082031 39.261719 317.367188 39.371094 C 316.988281 39.441406 316.71875 39.480469 316.578125 39.480469 C 316.265625 39.480469 316.097656 39.371094 316.097656 39.164063 C 316.097656 39 316.226563 38.886719 316.484375 38.824219 L 317.054688 38.65625 C 317.769531 38.457031 318.113281 37.757813 318.113281 36.5625 L 318.136719 35.585938 L 318.136719 22.929688 C 318.136719 21.5 317.976563 20.539063 317.667969 20.042969 C 317.355469 19.546875 316.746094 19.296875 315.84375 19.296875 C 315.550781 19.296875 315.40625 19.210938 315.40625 19.023438 C 315.40625 18.746094 315.644531 18.601563 316.085938 18.601563 C 316.335938 18.601563 316.664063 18.636719 317.085938 18.6875 C 318.511719 18.84375 320.226563 18.917969 322.238281 18.917969 C 323.449219 18.917969 324.53125 18.902344 325.46875 18.863281 L 327.589844 18.757813 C 328.179688 18.742188 328.535156 18.726563 328.671875 18.707031 C 328.9375 18.671875 329.132813 18.65625 329.261719 18.65625 C 329.597656 18.65625 329.753906 18.796875 329.753906 19.078125 C 329.753906 19.167969 329.746094 19.28125 329.714844 19.417969 C 329.675781 19.5625 329.640625 19.953125 329.589844 20.601563 L 329.523438 21.484375 C 329.476563 22.050781 329.421875 22.417969 329.363281 22.558594 C 329.320313 22.707031 329.199219 22.785156 329.015625 22.789063 C 328.828125 22.800781 328.722656 22.65625 328.722656 22.339844 L 328.722656 21.945313 C 328.722656 21.632813 328.664063 21.332031 328.546875 21.039063 C 328.355469 20.589844 327.96875 20.292969 327.398438 20.136719 C 326.824219 19.992188 325.761719 19.910156 324.230469 19.910156 L 321.894531 19.910156 C 321.277344 19.910156 320.886719 20 320.703125 20.144531 C 320.53125 20.304688 320.433594 20.640625 320.433594 21.179688 "/>
</g>
<path style=" stroke:none;fill-rule:nonzero;fill:rgb(59.606934%,58.430481%,50.979614%);fill-opacity:1;" d="M 19.480469 -0.00390625 L 19.480469 47.953125 L 0 15.703125 Z M 19.480469 -0.00390625 "/>
<g clip-path="url(#clip2)" clip-rule="nonzero">
<path style=" stroke:none;fill-rule:nonzero;fill:rgb(59.606934%,58.430481%,50.979614%);fill-opacity:1;" d="M 22.390625 18.609375 L 22.390625 48.039063 L 42.082031 18.609375 Z M 22.390625 18.609375 "/>
</g>
</g>
</svg>
