<svg width="55" height="55" viewBox="0 0 55 55" fill="none" xmlns="http://www.w3.org/2000/svg">
<mask id="mask0_8246_992" style="mask-type:alpha" maskUnits="userSpaceOnUse" x="0" y="0" width="55" height="55">
<rect width="55" height="55" fill="#D9D9D9"/>
</mask>
<g mask="url(#mask0_8246_992)">
<path d="M29.0421 48.5017L26.8479 47.8313L27.4557 45.9539C27.7437 44.8906 27.8275 43.8263 27.7072 42.761C27.5865 41.6962 27.2294 40.6804 26.6359 39.7137C25.7692 38.4094 25.2265 37.0571 25.0077 35.6569C24.7888 34.257 24.9173 32.8005 25.3932 31.2872L25.9575 29.4098L28.1518 30.0801L27.544 31.9576C27.209 33.0415 27.1061 34.1174 27.2352 35.1854C27.3646 36.2533 27.7408 37.2574 28.3638 38.1978C29.1834 39.5021 29.7144 40.8683 29.9565 42.2964C30.199 43.7241 30.0824 45.1667 29.6065 46.6242L29.0421 48.5017ZM20.1046 48.5017L17.9104 47.8313L18.5182 45.9539C18.8062 44.8994 18.89 43.8255 18.7697 42.7324C18.649 41.6396 18.2772 40.6187 17.6543 39.6696C16.7494 38.4328 16.2046 37.0932 16.0197 35.6506C15.8345 34.208 15.9798 32.7535 16.4557 31.2872L17.02 29.4098L19.2143 30.0801L18.6065 31.9576C18.2715 33.0415 18.1686 34.127 18.2977 35.214C18.4271 36.301 18.818 37.3103 19.4704 38.2419C20.2988 39.4992 20.8173 40.8632 21.0259 42.3336C21.2344 43.8041 21.1154 45.2343 20.669 46.6242L20.1046 48.5017ZM37.7505 48.5017L35.5562 47.8313L36.1641 45.9539C36.452 44.9288 36.5359 43.8549 36.4156 42.7324C36.2949 41.6102 35.9231 40.5893 35.3001 39.6696C34.3953 38.4034 33.8577 37.0563 33.6873 35.6282C33.517 34.2005 33.6551 32.7535 34.1016 31.2872L34.6659 29.4098L36.8602 30.0801L36.2523 31.9576C35.9173 33.0503 35.8144 34.1262 35.9435 35.1854C36.073 36.2445 36.4492 37.2486 37.0721 38.1978C37.9006 39.5315 38.4242 40.905 38.6431 42.3182C38.8619 43.7314 38.7525 45.1667 38.3148 46.6242L37.7505 48.5017ZM11.4582 11.4557V14.0997C11.4582 14.5111 11.5903 14.8491 11.8546 15.1138C12.1193 15.3781 12.4573 15.5103 12.8687 15.5103H42.131C42.5423 15.5103 42.8804 15.3781 43.1451 15.1138C43.4094 14.8491 43.5415 14.5111 43.5415 14.0997V11.4557H11.4582ZM17.24 17.8019L18.3687 20.9306C18.4859 21.2247 18.6622 21.4526 18.8975 21.6141C19.1324 21.7757 19.3967 21.8565 19.6904 21.8565H35.3093C35.603 21.8565 35.8673 21.7757 36.1022 21.6141C36.3375 21.4526 36.5137 21.2247 36.631 20.9306L37.7596 17.8019H17.24ZM19.6904 24.1481C18.9032 24.1481 18.1894 23.9255 17.5488 23.4801C16.9083 23.0351 16.45 22.4382 16.1738 21.6892L14.8074 17.8019H12.8687C11.8432 17.8019 10.9697 17.4412 10.2482 16.7197C9.52706 15.9986 9.1665 15.1253 9.1665 14.0997V9.16406H45.8332V14.0997C45.8332 15.1253 45.4726 15.9986 44.7515 16.7197C44.03 17.4412 43.1565 17.8019 42.131 17.8019H40.1922L38.6585 21.7419C38.3736 22.4439 37.9225 23.0204 37.3053 23.4715C36.6885 23.9226 35.9908 24.1481 35.2124 24.1481H19.6904Z" fill="#1C1B1F"/>
</g>
</svg>
