<svg width="55" height="55" viewBox="0 0 55 55" fill="none" xmlns="http://www.w3.org/2000/svg">
<mask id="mask0_8246_1022" style="mask-type:alpha" maskUnits="userSpaceOnUse" x="0" y="0" width="55" height="55">
<rect width="55" height="55" fill="#D9D9D9"/>
</mask>
<g mask="url(#mask0_8246_1022)">
<path d="M15.1607 48.125C14.1352 48.125 13.2617 47.7644 12.5402 47.0433C11.8191 46.3218 11.4585 45.4483 11.4585 44.4228V24.3272C11.4585 23.3017 11.8191 22.4282 12.5402 21.7067C13.2617 20.9856 14.1352 20.625 15.1607 20.625H18.3335V16.0417C18.3335 13.4884 19.223 11.3224 21.0021 9.54365C22.7809 7.76455 24.9469 6.875 27.5002 6.875C30.0535 6.875 32.2195 7.76455 33.9982 9.54365C35.7773 11.3224 36.6668 13.4884 36.6668 16.0417V20.625H39.8396C40.8652 20.625 41.7387 20.9856 42.4602 21.7067C43.1813 22.4282 43.5418 23.3017 43.5418 24.3272V44.4228C43.5418 45.4483 43.1813 46.3218 42.4602 47.0433C41.7387 47.7644 40.8652 48.125 39.8396 48.125H15.1607ZM15.1607 45.8333H39.8396C40.251 45.8333 40.589 45.7012 40.8537 45.4369C41.118 45.1722 41.2502 44.8342 41.2502 44.4228V24.3272C41.2502 23.9158 41.118 23.5778 40.8537 23.3131C40.589 23.0488 40.251 22.9167 39.8396 22.9167H15.1607C14.7493 22.9167 14.4113 23.0488 14.1466 23.3131C13.8823 23.5778 13.7502 23.9158 13.7502 24.3272V44.4228C13.7502 44.8342 13.8823 45.1722 14.1466 45.4369C14.4113 45.7012 14.7493 45.8333 15.1607 45.8333ZM27.5002 37.8125C28.4669 37.8125 29.2814 37.4812 29.9437 36.8185C30.6063 36.1562 30.9377 35.3417 30.9377 34.375C30.9377 33.4083 30.6063 32.5938 29.9437 31.9315C29.2814 31.2688 28.4669 30.9375 27.5002 30.9375C26.5335 30.9375 25.719 31.2688 25.0567 31.9315C24.394 32.5938 24.0627 33.4083 24.0627 34.375C24.0627 35.3417 24.394 36.1562 25.0567 36.8185C25.719 37.4812 26.5335 37.8125 27.5002 37.8125ZM20.6252 20.625H34.3752V16.0417C34.3752 14.1319 33.7068 12.5087 32.37 11.1719C31.0331 9.83507 29.4099 9.16667 27.5002 9.16667C25.5904 9.16667 23.9672 9.83507 22.6304 11.1719C21.2936 12.5087 20.6252 14.1319 20.6252 16.0417V20.625Z" fill="#1C1B1F"/>
</g>
</svg>
