<svg width="55" height="55" viewBox="0 0 55 55" fill="none" xmlns="http://www.w3.org/2000/svg">
<mask id="mask0_8246_983" style="mask-type:alpha" maskUnits="userSpaceOnUse" x="0" y="0" width="55" height="55">
<rect width="55" height="55" fill="#D9D9D9"/>
</mask>
<g mask="url(#mask0_8246_983)">
<path d="M30.938 51.5604V38.5597L24.2744 32.1694L21.8068 43.1339L8.19775 40.3667L8.67327 38.1186L19.6733 40.3667L23.957 18.4544L17.188 21.2485V28.6437H14.8963V19.724L24.0366 15.9164C25.0209 15.5195 25.7473 15.2499 26.216 15.1074C26.6846 14.9649 27.1128 14.8937 27.5005 14.8937C28.0971 14.8937 28.6509 15.0524 29.1619 15.3698C29.673 15.6872 30.0946 16.1161 30.4269 16.6566L32.7186 20.3232C33.6822 21.8686 35.0139 23.201 36.7135 24.3205C38.4132 25.4399 40.3074 26.0877 42.3963 26.2638V28.5555C40.2574 28.4088 38.1118 27.7368 35.9596 26.5394C33.8077 25.342 31.9429 23.4726 30.365 20.9311L28.3289 31.2877L33.2296 36.0475V51.5604H30.938ZM30.938 11.8968C29.854 11.8968 28.9366 11.5215 28.1857 10.771C27.4352 10.0201 27.0599 9.10266 27.0599 8.0187C27.0599 6.93474 27.4352 6.01731 28.1857 5.26641C28.9366 4.51589 29.854 4.14062 30.938 4.14062C32.0219 4.14062 32.9394 4.51589 33.6903 5.26641C34.4408 6.01731 34.816 6.93474 34.816 8.0187C34.816 9.10266 34.4408 10.0201 33.6903 10.771C32.9394 11.5215 32.0219 11.8968 30.938 11.8968Z" fill="#1C1B1F"/>
</g>
</svg>
