<svg width="55" height="55" viewBox="0 0 55 55" fill="none" xmlns="http://www.w3.org/2000/svg">
<mask id="mask0_8246_1010" style="mask-type:alpha" maskUnits="userSpaceOnUse" x="0" y="0" width="55" height="55">
<rect width="55" height="55" fill="#D9D9D9"/>
</mask>
<g mask="url(#mask0_8246_1010)">
<path d="M41.25 38.9557C40.2833 38.9557 39.4688 38.6244 38.8065 37.9617C38.1438 37.2994 37.8125 36.4849 37.8125 35.5182C37.8125 34.5515 38.1438 33.737 38.8065 33.0747C39.4688 32.4121 40.2833 32.0807 41.25 32.0807C42.2167 32.0807 43.0312 32.4121 43.6935 33.0747C44.3562 33.737 44.6875 34.5515 44.6875 35.5182C44.6875 36.4849 44.3562 37.2994 43.6935 37.9617C43.0312 38.6244 42.2167 38.9557 41.25 38.9557ZM33.2292 49.2682V47.9505C33.2292 46.6519 33.974 45.592 35.4635 44.7708C36.9531 43.9497 38.8819 43.5391 41.25 43.5391C43.6181 43.5391 45.5469 43.9497 47.0365 44.7708C48.526 45.592 49.2708 46.6519 49.2708 47.9505V49.2682H33.2292ZM37.8125 27.4974H35.5208V16.0391C35.5208 13.7386 34.7231 11.8266 33.1278 10.303C31.5324 8.77983 29.6565 8.01823 27.5 8.01823C25.3435 8.01823 23.4676 8.77983 21.8722 10.303C20.2769 11.8266 19.4792 13.7386 19.4792 16.0391V38.9557C19.4792 41.1122 20.2769 42.9881 21.8722 44.5835C23.4676 46.1789 25.3435 46.9766 27.5 46.9766V49.2682C24.606 49.2682 22.1639 48.2729 20.1735 46.2822C18.1828 44.2919 17.1875 41.8497 17.1875 38.9557V16.0391C17.1875 13.1451 18.1828 10.7029 20.1735 8.7126C22.1639 6.72191 24.606 5.72656 27.5 5.72656C30.394 5.72656 32.8361 6.72191 34.8265 8.7126C36.8172 10.7029 37.8125 13.1451 37.8125 16.0391V27.4974ZM27.5 22.6494C28.6878 22.6494 29.7046 22.2266 30.5502 21.3809C31.3958 20.5353 31.8186 19.5186 31.8186 18.3307C31.8186 17.1429 31.3958 16.1261 30.5502 15.2805C29.7046 14.4349 28.6878 14.0121 27.5 14.0121C26.3122 14.0121 25.2954 14.4349 24.4498 15.2805C23.6042 16.1261 23.1814 17.1429 23.1814 18.3307C23.1814 19.5186 23.6042 20.5353 24.4498 21.3809C25.2954 22.2266 26.3122 22.6494 27.5 22.6494ZM23.1814 36.6641C23.1814 37.8519 23.6042 38.8686 24.4498 39.7143C25.2954 40.5599 26.3122 40.9827 27.5 40.9827C28.6878 40.9827 29.7046 40.5599 30.5502 39.7143C31.3958 38.8686 31.8186 37.8519 31.8186 36.6641C31.8186 35.4762 31.3958 34.4595 30.5502 33.6139C29.7046 32.7682 28.6878 32.3454 27.5 32.3454C26.3122 32.3454 25.2954 32.7682 24.4498 33.6139C23.6042 34.4595 23.1814 35.4762 23.1814 36.6641ZM27.4908 39.2204C26.7212 39.2204 26.1044 38.955 25.6403 38.4241C25.1759 37.8932 24.9436 37.3092 24.9436 36.6721C24.9436 36.035 25.1789 35.4483 25.6495 34.9121C26.1197 34.3758 26.7395 34.1077 27.5092 34.1077C28.2788 34.1077 28.8956 34.3415 29.3597 34.809C29.8241 35.2761 30.0564 35.8918 30.0564 36.656C30.0564 37.2931 29.8211 37.8798 29.3505 38.416C28.8803 38.9523 28.2605 39.2204 27.4908 39.2204Z" fill="#1C1B1F"/>
</g>
</svg>
