<svg width="55" height="55" viewBox="0 0 55 55" fill="none" xmlns="http://www.w3.org/2000/svg">
<mask id="mask0_8246_1078" style="mask-type:alpha" maskUnits="userSpaceOnUse" x="0" y="0" width="55" height="55">
<rect width="55" height="55" fill="#D9D9D9"/>
</mask>
<g mask="url(#mask0_8246_1078)">
<path d="M22.2996 29.2603C21.8268 29.2603 21.4147 29.0848 21.0633 28.7338C20.7123 28.3824 20.5368 27.9702 20.5368 27.4974C20.5368 27.0245 20.7123 26.6124 21.0633 26.261C21.4147 25.91 21.8268 25.7345 22.2996 25.7345C22.7729 25.7345 23.185 25.91 23.536 26.261C23.887 26.6124 24.0625 27.0245 24.0625 27.4974C24.0625 27.9702 23.887 28.3824 23.536 28.7338C23.185 29.0848 22.7729 29.2603 22.2996 29.2603ZM32.7004 29.2603C32.2271 29.2603 31.815 29.0848 31.464 28.7338C31.113 28.3824 30.9375 27.9702 30.9375 27.4974C30.9375 27.0245 31.113 26.6124 31.464 26.261C31.815 25.91 32.2271 25.7345 32.7004 25.7345C33.1732 25.7345 33.5853 25.91 33.9367 26.261C34.2877 26.6124 34.4632 27.0245 34.4632 27.4974C34.4632 27.9702 34.2877 28.3824 33.9367 28.7338C33.5853 29.0848 33.1732 29.2603 32.7004 29.2603ZM10.3125 45.8307V43.5391H12.6042V12.8662C12.6042 11.8113 12.9575 10.9306 13.6641 10.224C14.3707 9.51736 15.2514 9.16406 16.3064 9.16406H38.6936C39.7486 9.16406 40.6293 9.51736 41.3359 10.224C42.0425 10.9306 42.3958 11.8113 42.3958 12.8662V43.5391H44.6875V45.8307H10.3125ZM14.8958 43.5391H26.3542V11.4557H16.3064C15.9534 11.4557 15.6301 11.6026 15.3364 11.8963C15.0427 12.19 14.8958 12.5133 14.8958 12.8662V43.5391ZM28.6458 43.5391H40.1042V12.8662C40.1042 12.5133 39.9573 12.19 39.6636 11.8963C39.3699 11.6026 39.0466 11.4557 38.6936 11.4557H28.6458V43.5391Z" fill="#1C1B1F"/>
</g>
</svg>
