<svg width="55" height="55" viewBox="0 0 55 55" fill="none" xmlns="http://www.w3.org/2000/svg">
<mask id="mask0_8246_1034" style="mask-type:alpha" maskUnits="userSpaceOnUse" x="0" y="0" width="55" height="55">
<rect width="55" height="55" fill="#D9D9D9"/>
</mask>
<g mask="url(#mask0_8246_1034)">
<path d="M10.5772 43.5443C9.52226 43.5443 8.64149 43.191 7.9349 42.4844C7.2283 41.7778 6.875 40.897 6.875 39.8421V15.1631C6.875 14.1082 7.2283 13.2274 7.9349 12.5208C8.64149 11.8142 9.52226 11.4609 10.5772 11.4609H44.4228C45.4777 11.4609 46.3585 11.8142 47.0651 12.5208C47.7717 13.2274 48.125 14.1082 48.125 15.1631V39.8421C48.125 40.897 47.7717 41.7778 47.0651 42.4844C46.3585 43.191 45.4777 43.5443 44.4228 43.5443H10.5772ZM10.5772 41.2526H44.4228C44.7757 41.2526 45.099 41.1057 45.3928 40.812C45.6865 40.5183 45.8333 40.195 45.8333 39.8421V18.3359H9.16667V39.8421C9.16667 40.195 9.31352 40.5183 9.60724 40.812C9.90096 41.1057 10.2243 41.2526 10.5772 41.2526ZM25.0938 36.2551L18.5447 29.706L20.193 28.0578L25.0938 32.9585L34.807 23.2453L36.4553 24.8935L25.0938 36.2551ZM10.5772 41.2526H9.16667V13.7526H10.5772C10.2243 13.7526 9.90096 13.8995 9.60724 14.1932C9.31352 14.4869 9.16667 14.8102 9.16667 15.1631V39.8421C9.16667 40.195 9.31352 40.5183 9.60724 40.812C9.90096 41.1057 10.2243 41.2526 10.5772 41.2526Z" fill="#1C1B1F"/>
</g>
</svg>
