<svg width="31" height="47" viewBox="0 0 31 47" fill="none" xmlns="http://www.w3.org/2000/svg">
<path d="M3.85235 47C2.78523 47 1.8763 46.6303 1.12554 45.8908C0.37518 45.1509 0 44.2552 0 43.2036V3.79642C0 2.71464 0.367628 1.81146 1.10288 1.08687C1.83814 0.362292 2.75463 0 3.85235 0H24.9467C26.0138 0 26.9225 0.369734 27.6729 1.1092C28.4236 1.84906 28.799 2.7448 28.799 3.79642V11.3523C29.392 11.4157 29.9071 11.6583 30.3442 12.0802C30.7814 12.5016 31 13.0092 31 13.603V17.7607C31 18.3541 30.7814 18.8617 30.3442 19.2835C29.9071 19.7053 29.392 19.948 28.799 20.0114V43.2036C28.799 44.2552 28.4236 45.1509 27.6729 45.8908C26.9225 46.6303 26.0138 47 24.9467 47H3.85235ZM3.85235 44.65H24.9467C25.3747 44.65 25.7262 44.5145 26.0013 44.2435C26.2767 43.972 26.4144 43.6254 26.4144 43.2036V3.79642C26.4144 3.3746 26.2767 3.02797 26.0013 2.75655C25.7262 2.48552 25.3747 2.35 24.9467 2.35H3.85235C3.42431 2.35 3.07258 2.48552 2.79715 2.75655C2.52213 3.02797 2.38462 3.3746 2.38462 3.79642V43.2036C2.38462 43.6254 2.52213 43.972 2.79715 44.2435C3.07258 44.5145 3.42431 44.65 3.85235 44.65ZM14.3995 10.1232C14.9221 10.1232 15.3585 9.95068 15.7087 9.60563C16.0588 9.26057 16.2339 8.83051 16.2339 8.31547C16.2339 7.80004 16.0588 7.36999 15.7087 7.02533C15.3585 6.68027 14.9221 6.50774 14.3995 6.50774C13.8765 6.50774 13.4401 6.68027 13.0903 7.02533C12.7402 7.36999 12.5651 7.80004 12.5651 8.31547C12.5651 8.83051 12.7402 9.26057 13.0903 9.60563C13.4401 9.95068 13.8765 10.1232 14.3995 10.1232Z" fill="#1C1B1F"/>
</svg>
