<svg width="309" height="125" viewBox="0 0 309 125" fill="none" xmlns="http://www.w3.org/2000/svg">
<mask id="mask0_28_97" style="mask-type:alpha" maskUnits="userSpaceOnUse" x="0" y="0" width="125" height="125">
<rect width="124.638" height="124.638" fill="url(#paint0_linear_28_97)"/>
</mask>
<g mask="url(#mask0_28_97)">
<path d="M62.3194 54.5287C56.2606 54.5287 50.31 53.1438 44.4676 50.3741C38.6252 47.6043 33.2373 43.796 28.3037 38.9489L42.8448 30.3801C44.8355 31.9381 46.783 33.258 48.6871 34.3399C50.5913 35.4219 52.409 36.2225 54.14 36.7418V11.4248L62.3194 6.49121L70.4987 11.4248V36.7418C72.4895 36.1359 74.437 35.292 76.3411 34.2101C78.2453 33.1282 80.063 31.8515 81.794 30.3801L96.3351 38.9489C91.4015 43.796 86.0135 47.6043 80.1712 50.3741C74.3288 53.1438 68.3782 54.5287 62.3194 54.5287ZM54.919 110.616L40.1183 102.696C40.378 101.225 40.5511 99.9911 40.6376 98.9958C40.7242 98.0004 40.7675 97.1565 40.7675 96.4641C40.7675 95.2523 40.7025 94.0838 40.5727 92.9586C40.4429 91.8334 40.2049 90.7082 39.8586 89.583L18.047 102.696L9.60803 98.2817V88.6742L31.2898 75.6911C29.8184 74.3928 28.1306 73.181 26.2264 72.0558C24.3222 70.9306 22.2449 69.9785 19.9945 69.1996V52.3215C30.8138 55.0913 39.7072 60.5225 46.6748 68.6153C53.6424 76.7081 57.1262 85.991 57.1262 96.4641C57.1262 98.2817 56.9314 100.359 56.5419 102.696C56.1524 105.033 55.6115 107.673 54.919 110.616ZM69.7198 110.616C69.1139 108.106 68.5946 105.747 68.1618 103.54C67.729 101.333 67.5126 98.9741 67.5126 96.4641C67.5126 85.991 71.0181 76.7081 78.0289 68.6153C85.0398 60.5225 93.9116 55.0913 104.644 52.3215V69.1996C102.134 70.0651 99.9704 71.0388 98.1527 72.1208C96.3351 73.2027 94.7339 74.3495 93.349 75.5613L115.031 88.6742V98.2817L106.592 102.696L84.7801 89.583C84.4339 90.7082 84.1959 91.8334 84.0661 92.9586C83.9362 94.0838 83.8713 95.2523 83.8713 96.4641C83.8713 97.1565 83.9146 98.0004 84.0012 98.9958C84.0877 99.9911 84.2608 101.225 84.5205 102.696L69.7198 110.616Z" fill="url(#paint1_linear_28_97)"/>
</g>
<path d="M128.177 42.0911H138.797L150.013 69.4547H150.49L161.706 42.0911H172.325V82.8184H163.973V56.3098H163.635L153.095 82.6195H147.408L136.868 56.2104H136.53V82.8184H128.177V42.0911ZM187.971 83.3951C186.022 83.3951 184.285 83.057 182.761 82.3809C181.236 81.6915 180.03 80.6773 179.141 79.3382C178.266 77.986 177.829 76.3023 177.829 74.2871C177.829 72.5901 178.14 71.165 178.763 70.0115C179.387 68.8581 180.235 67.9301 181.309 67.2275C182.383 66.5248 183.602 65.9945 184.968 65.6365C186.347 65.2786 187.792 65.0267 189.303 64.8809C191.08 64.6953 192.512 64.5229 193.599 64.3638C194.686 64.1915 195.475 63.9396 195.965 63.6081C196.456 63.2767 196.701 62.7862 196.701 62.1365V62.0172C196.701 60.7578 196.303 59.7833 195.508 59.0939C194.726 58.4045 193.612 58.0598 192.167 58.0598C190.642 58.0598 189.429 58.3979 188.528 59.074C187.626 59.7369 187.03 60.5721 186.738 61.5797L178.903 60.9434C179.3 59.0873 180.083 57.4831 181.249 56.1309C182.416 54.7653 183.921 53.718 185.763 52.9888C187.619 52.2464 189.767 51.8752 192.207 51.8752C193.904 51.8752 195.528 52.074 197.079 52.4718C198.643 52.8695 200.029 53.486 201.235 54.3212C202.455 55.1564 203.416 56.2303 204.119 57.5428C204.821 58.842 205.172 60.3998 205.172 62.2161V82.8184H197.138V78.5826H196.9C196.409 79.5371 195.753 80.379 194.931 81.1081C194.109 81.824 193.121 82.3875 191.968 82.7985C190.815 83.1962 189.482 83.3951 187.971 83.3951ZM190.397 77.5485C191.643 77.5485 192.744 77.3032 193.698 76.8127C194.653 76.3089 195.402 75.6328 195.945 74.7843C196.489 73.9358 196.761 72.9746 196.761 71.9007V68.6593C196.495 68.8316 196.131 68.9907 195.667 69.1365C195.216 69.2691 194.706 69.3951 194.136 69.5144C193.565 69.6204 192.995 69.7199 192.425 69.8127C191.855 69.8922 191.338 69.9651 190.874 70.0314C189.88 70.1773 189.012 70.4093 188.269 70.7275C187.527 71.0456 186.95 71.4765 186.539 72.0201C186.128 72.5504 185.922 73.2132 185.922 74.0087C185.922 75.1621 186.34 76.0437 187.175 76.6536C188.024 77.2502 189.098 77.5485 190.397 77.5485ZM227.992 52.2729V58.6365H209.597V52.2729H227.992ZM213.773 44.9547H222.245V73.432C222.245 74.2142 222.364 74.824 222.603 75.2615C222.842 75.6858 223.173 75.9841 223.597 76.1564C224.035 76.3288 224.539 76.415 225.109 76.415C225.506 76.415 225.904 76.3818 226.302 76.3155C226.699 76.236 227.004 76.1763 227.217 76.1365L228.549 82.4405C228.125 82.5731 227.528 82.7256 226.759 82.8979C225.99 83.0835 225.056 83.1962 223.955 83.236C221.914 83.3155 220.124 83.0437 218.586 82.4206C217.061 81.7975 215.875 80.8297 215.026 79.5172C214.178 78.2047 213.76 76.5475 213.773 74.5456V44.9547ZM249.758 52.2729V58.6365H231.363V52.2729H249.758ZM235.539 44.9547H244.011V73.432C244.011 74.2142 244.13 74.824 244.369 75.2615C244.607 75.6858 244.939 75.9841 245.363 76.1564C245.8 76.3288 246.304 76.415 246.874 76.415C247.272 76.415 247.67 76.3818 248.067 76.3155C248.465 76.236 248.77 76.1763 248.982 76.1365L250.315 82.4405C249.89 82.5731 249.294 82.7256 248.525 82.8979C247.756 83.0835 246.821 83.1962 245.721 83.236C243.679 83.3155 241.889 83.0437 240.351 82.4206C238.827 81.7975 237.64 80.8297 236.792 79.5172C235.943 78.2047 235.526 76.5475 235.539 74.5456V44.9547ZM268.869 83.415C265.726 83.415 263.022 82.7786 260.755 81.5059C258.501 80.2199 256.764 78.4036 255.545 76.057C254.325 73.6971 253.715 70.9064 253.715 67.6848C253.715 64.5428 254.325 61.7852 255.545 59.4121C256.764 57.039 258.481 55.1896 260.695 53.8638C262.922 52.5381 265.534 51.8752 268.53 51.8752C270.546 51.8752 272.422 52.2 274.158 52.8496C275.908 53.486 277.433 54.4471 278.732 55.7331C280.045 57.0191 281.065 58.6365 281.795 60.5854C282.524 62.521 282.888 64.7881 282.888 67.3865V69.7132H257.096V64.4632H274.914C274.914 63.2435 274.649 62.1631 274.119 61.2218C273.588 60.2805 272.852 59.5447 271.911 59.0144C270.983 58.4708 269.903 58.199 268.67 58.199C267.384 58.199 266.244 58.4973 265.249 59.0939C264.268 59.6773 263.499 60.4661 262.942 61.4604C262.386 62.4415 262.101 63.5352 262.087 64.7417V69.7331C262.087 71.2445 262.366 72.5504 262.922 73.6507C263.493 74.7511 264.295 75.5996 265.329 76.1962C266.363 76.7928 267.589 77.0911 269.008 77.0911C269.949 77.0911 270.811 76.9585 271.593 76.6934C272.375 76.4282 273.045 76.0305 273.601 75.5002C274.158 74.9699 274.583 74.3203 274.874 73.5513L282.709 74.0684C282.312 75.9509 281.496 77.5949 280.263 79.0002C279.044 80.3922 277.466 81.4793 275.53 82.2615C273.608 83.0305 271.387 83.415 268.869 83.415ZM288.417 82.8184V52.2729H296.63V57.6025H296.948C297.505 55.7066 298.44 54.2748 299.752 53.307C301.065 52.3259 302.576 51.8354 304.286 51.8354C304.71 51.8354 305.168 51.8619 305.658 51.9149C306.149 51.968 306.58 52.0409 306.951 52.1337V59.6507C306.553 59.5314 306.003 59.4254 305.3 59.3326C304.598 59.2398 303.955 59.1934 303.371 59.1934C302.125 59.1934 301.012 59.4651 300.03 60.0087C299.063 60.539 298.294 61.2814 297.724 62.236C297.167 63.1905 296.888 64.2909 296.888 65.5371V82.8184H288.417Z" fill="#3E4A56"/>
<defs>
<linearGradient id="paint0_linear_28_97" x1="106" y1="46.5" x2="9" y2="100" gradientUnits="userSpaceOnUse">
<stop stop-color="#6F53C4"/>
<stop offset="1" stop-color="#5BDBF2"/>
</linearGradient>
<linearGradient id="paint1_linear_28_97" x1="99.2664" y1="45.3381" x2="17.6979" y2="90.8878" gradientUnits="userSpaceOnUse">
<stop stop-color="#6F53C4"/>
<stop offset="1" stop-color="#5BDBF2"/>
</linearGradient>
</defs>
</svg>
