<svg width="55" height="55" viewBox="0 0 55 55" fill="none" xmlns="http://www.w3.org/2000/svg">
<mask id="mask0_8235_10048" style="mask-type:alpha" maskUnits="userSpaceOnUse" x="0" y="0" width="55" height="55">
<rect width="55" height="55" fill="#D9D9D9"/>
</mask>
<g mask="url(#mask0_8235_10048)">
<path d="M10.5772 43.5413C9.52226 43.5413 8.64149 43.188 7.9349 42.4814C7.2283 41.7748 6.875 40.8941 6.875 39.8392V15.1602C6.875 14.1053 7.2283 13.2245 7.9349 12.5179C8.64149 11.8113 9.52226 11.458 10.5772 11.458H45.2163C46.0065 11.458 46.7036 11.6717 47.3074 12.0991C47.9113 12.5265 48.3307 13.0767 48.5656 13.7497H10.5772C10.2243 13.7497 9.90095 13.8965 9.60724 14.1902C9.31352 14.484 9.16667 14.8073 9.16667 15.1602V39.8392C9.16667 40.1921 9.31352 40.5154 9.60724 40.8091C9.90095 41.1028 10.2243 41.2497 10.5772 41.2497H16.0417V43.5413H10.5772ZM46.2739 40.5003V23.1369C46.2739 22.931 46.2006 22.7548 46.0539 22.6081C45.9069 22.4611 45.7306 22.3875 45.5251 22.3875H36.9749C36.7694 22.3875 36.5931 22.4611 36.4461 22.6081C36.2994 22.7548 36.2261 22.931 36.2261 23.1369V40.5003C36.2261 40.7062 36.2994 40.8824 36.4461 41.0291C36.5931 41.1761 36.7694 41.2497 36.9749 41.2497H45.5251C45.7306 41.2497 45.9069 41.1761 46.0539 41.0291C46.2006 40.8824 46.2739 40.7062 46.2739 40.5003ZM36.7108 43.5413C35.9396 43.5413 35.284 43.2715 34.744 42.7318C34.2043 42.1917 33.9344 41.5361 33.9344 40.765V22.8722C33.9344 22.1011 34.2043 21.4455 34.744 20.9054C35.284 20.3657 35.9396 20.0959 36.7108 20.0959H45.7892C46.5604 20.0959 47.216 20.3657 47.756 20.9054C48.2957 21.4455 48.5656 22.1011 48.5656 22.8722V40.765C48.5656 41.5361 48.2957 42.1917 47.756 42.7318C47.216 43.2715 46.5604 43.5413 45.7892 43.5413H36.7108ZM41.242 28.6455C41.685 28.6455 42.0542 28.4922 42.3494 28.1855C42.6447 27.8784 42.7923 27.5203 42.7923 27.1112C42.7923 26.6682 42.6449 26.2988 42.35 26.0032C42.0551 25.708 41.6822 25.5604 41.2311 25.5604C40.8148 25.5604 40.4567 25.708 40.1569 26.0032C39.8574 26.2981 39.7077 26.671 39.7077 27.1221C39.7077 27.5384 39.8611 27.8963 40.1678 28.1958C40.4745 28.4956 40.8325 28.6455 41.242 28.6455ZM22.4761 43.5413L21.4626 40.0156C20.7953 39.4839 20.2686 38.8295 19.8825 38.0522C19.496 37.2754 19.3027 36.4307 19.3027 35.5182C19.3027 34.6061 19.496 33.7622 19.8825 32.9865C20.2686 32.2108 20.7953 31.5571 21.4626 31.0254L22.4761 27.4997H27.5882L28.6017 31.0254C29.2686 31.5571 29.7953 32.2115 30.1818 32.9888C30.568 33.7657 30.761 34.6103 30.761 35.5228C30.761 36.4349 30.568 37.2788 30.1818 38.0545C29.7953 38.8302 29.2686 39.4839 28.6017 40.0156L27.5882 43.5413H22.4761ZM25.0319 39.2227C26.1013 39.2227 26.9857 38.8627 27.6851 38.1427C28.3844 37.4228 28.7341 36.5487 28.7341 35.5205C28.7341 34.4923 28.3638 33.6182 27.6232 32.8983C26.883 32.1783 26.0192 31.8183 25.0319 31.8183C24.0449 31.8183 23.1812 32.168 22.4406 32.8673C21.7004 33.5667 21.3303 34.4511 21.3303 35.5205C21.3303 36.59 21.6799 37.4743 22.3793 38.1737C23.0782 38.873 23.9624 39.2227 25.0319 39.2227Z" fill="#1C1B1F"/>
</g>
</svg>
