<svg width="70" height="70" viewBox="0 0 70 70" fill="none" xmlns="http://www.w3.org/2000/svg">
<mask id="mask0_8235_10028" style="mask-type:alpha" maskUnits="userSpaceOnUse" x="0" y="0" width="70" height="70">
<rect width="70" height="70" fill="#D9D9D9"/>
</mask>
<g mask="url(#mask0_8235_10028)">
<path d="M53.6771 25.9029C52.5211 27.0501 51.1936 27.9212 49.6944 28.5162C48.1952 29.1112 46.6698 29.4087 45.1181 29.4087C43.5665 29.4087 42.0484 29.118 40.5638 28.5366C39.0792 27.9547 37.7555 27.0768 36.5927 25.9029L31.124 20.4341C30.2558 19.5552 29.2721 18.8963 28.173 18.4573C27.0735 18.0179 25.9452 17.7982 24.7882 17.7982C23.6308 17.7982 22.5033 18.0179 21.4056 18.4573C20.3075 18.8963 19.3251 19.5552 18.4584 20.4341L13.9995 24.8376L11.9185 22.7565L16.3219 18.2969C17.4934 17.1341 18.8171 16.2621 20.2929 15.6807C21.7683 15.0993 23.2655 14.8086 24.7846 14.8086C26.3032 14.8086 27.7902 15.0993 29.2456 15.6807C30.7011 16.2621 32.015 17.1341 33.1875 18.2969L38.6563 23.7657C39.5784 24.698 40.5869 25.3827 41.6816 25.8197C42.7758 26.2568 43.9213 26.4753 45.1181 26.4753C46.3145 26.4753 47.4522 26.2555 48.5314 25.8161C49.6101 25.3766 50.6131 24.6932 51.5406 23.7657L55.9995 19.363L58.0805 21.444L53.6771 25.9029ZM53.6771 38.8033C52.5119 39.9665 51.1848 40.8389 49.6959 41.4203C48.2069 42.0016 46.6866 42.2923 45.1349 42.2923C43.5832 42.2923 42.0629 42.0016 40.574 41.4203C39.085 40.8389 37.7579 39.9665 36.5927 38.8033L31.124 33.3345C30.2558 32.4561 29.2721 31.7972 28.173 31.3578C27.0735 30.9183 25.9452 30.6986 24.7882 30.6986C23.6308 30.6986 22.5033 30.9183 21.4056 31.3578C20.3075 31.7972 19.3251 32.4561 18.4584 33.3345L13.9995 37.738L11.9185 35.7298L16.3219 31.1981C17.4934 30.0348 18.8171 29.1625 20.2929 28.5811C21.7683 27.9997 23.2655 27.709 24.7846 27.709C26.3032 27.709 27.7902 27.9997 29.2456 28.5811C30.7011 29.1625 32.015 30.0348 33.1875 31.1981L38.6563 36.6668C39.5672 37.5987 40.5635 38.2831 41.6451 38.7202C42.7262 39.1572 43.8652 39.3757 45.062 39.3757C46.2588 39.3757 47.4058 39.156 48.5029 38.7165C49.6006 38.2771 50.6131 37.5938 51.5406 36.6668L55.9995 32.2634L58.0805 34.3444L53.6771 38.8033ZM53.6042 51.7044C52.4404 52.8672 51.126 53.7393 49.6609 54.3207C48.1952 54.9021 46.6866 55.1928 45.1349 55.1928C43.5832 55.1928 42.0622 54.8928 40.5718 54.293C39.0819 53.6926 37.7555 52.8111 36.5927 51.6483L31.0511 46.2357C30.1829 45.3568 29.1992 44.6976 28.1001 44.2582C27.0005 43.8187 25.8723 43.599 24.7153 43.599C23.5579 43.599 22.4304 43.8187 21.3327 44.2582C20.2346 44.6976 19.2522 45.3568 18.3854 46.2357L13.9266 50.6384L11.9185 48.6303L16.3219 44.0985C17.4866 42.9357 18.8025 42.0634 20.2696 41.4815C21.7367 40.9001 23.2252 40.6094 24.735 40.6094C26.2638 40.6094 27.7601 40.9001 29.2238 41.4815C30.687 42.0634 32.0082 42.9357 33.1875 44.0985L38.6563 49.5672C39.5838 50.4947 40.5869 51.178 41.6655 51.6169C42.7447 52.0564 43.8824 52.2761 45.0788 52.2761C46.2756 52.2761 47.4211 52.0576 48.5153 51.6206C49.6101 51.184 50.6185 50.4996 51.5406 49.5672L55.9995 45.1638L58.0076 47.2448L53.6042 51.7044Z" fill="#1C1B1F"/>
</g>
</svg>
