<svg width="55" height="55" viewBox="0 0 55 55" fill="none" xmlns="http://www.w3.org/2000/svg">
<mask id="mask0_8235_10018" style="mask-type:alpha" maskUnits="userSpaceOnUse" x="0" y="0" width="55" height="55">
<rect width="55" height="55" fill="#D9D9D9"/>
</mask>
<g mask="url(#mask0_8235_10018)">
<path d="M26.354 49.2712V38.1743L17.7603 46.6535L16.1383 45.0316L26.354 34.8159V28.6462H20.1843L9.96859 38.8618L8.34666 37.2399L16.8258 28.6462H5.729V26.3545H16.8258L8.34666 17.7607L9.96859 16.1388L20.1843 26.3545H26.354V20.1848L16.1383 9.96908L17.7603 8.34715L26.354 16.8263V5.72949H28.6457V16.8263L37.2394 8.34715L38.8614 9.96908L28.6457 20.1848V26.3545H34.8154L45.0311 16.1388L46.653 17.7607L38.1738 26.3545H49.2707V28.6462H38.1738L46.653 37.2399L45.0311 38.8618L34.8154 28.6462H28.6457V34.8159L38.8614 45.0316L37.2394 46.6535L28.6457 38.1743V49.2712H26.354Z" fill="#1C1B1F"/>
</g>
</svg>
