<svg width="55" height="55" viewBox="0 0 55 55" fill="none" xmlns="http://www.w3.org/2000/svg">
<mask id="mask0_8235_10038" style="mask-type:alpha" maskUnits="userSpaceOnUse" x="0" y="0" width="55" height="55">
<rect width="55" height="55" fill="#D9D9D9"/>
</mask>
<g mask="url(#mask0_8235_10038)">
<path d="M27.4992 46.6386C24.9577 46.6386 22.5757 46.1604 20.3532 45.2041C18.1306 44.2477 16.1886 42.9387 14.5272 41.2773C12.8657 39.6158 11.5568 37.6738 10.6004 35.4513C9.64402 33.2288 9.16583 30.8468 9.16583 28.3053C9.16583 25.7639 9.64402 23.3819 10.6004 21.1593C11.5568 18.9368 12.8657 16.9948 14.5272 15.3333C16.1886 13.6719 18.1306 12.3629 20.3532 11.4066C22.5757 10.4502 24.9577 9.97198 27.4992 9.97198C30.0406 9.97198 32.4226 10.4502 34.6451 11.4066C36.8677 12.3629 38.8097 13.6719 40.4711 15.3333C42.1326 16.9948 43.4415 18.9368 44.3979 21.1593C45.3543 23.3819 45.8325 25.7639 45.8325 28.3053C45.8325 30.8468 45.3543 33.2288 44.3979 35.4513C43.4415 37.6738 42.1326 39.6158 40.4711 41.2773C38.8097 42.9387 36.8677 44.2477 34.6451 45.2041C32.4226 46.1604 30.0406 46.6386 27.4992 46.6386ZM34.7093 37.1368L36.3307 35.5155L28.645 27.8292V16.847H26.3533V28.7814L34.7093 37.1368ZM13.5378 6.36719L15.1597 7.98854L7.18239 15.9658L5.56104 14.3439L13.5378 6.36719ZM41.4606 6.36719L49.4373 14.3439L47.8159 15.9658L39.8386 7.98854L41.4606 6.36719ZM27.4992 44.347C31.9385 44.347 35.722 42.7833 38.8498 39.6559C41.9771 36.5282 43.5408 32.7446 43.5408 28.3053C43.5408 23.866 41.9771 20.0824 38.8498 16.9547C35.722 13.8273 31.9385 12.2636 27.4992 12.2636C23.0598 12.2636 19.2763 13.8273 16.1485 16.9547C13.0212 20.0824 11.4575 23.866 11.4575 28.3053C11.4575 32.7446 13.0212 36.5282 16.1485 39.6559C19.2763 42.7833 23.0598 44.347 27.4992 44.347Z" fill="#1C1B1F"/>
</g>
</svg>
