<?xml version="1.0" encoding="utf-8"?>
<!-- Generator: Adobe Illustrator 26.0.1, SVG Export Plug-In . SVG Version: 6.00 Build 0)  -->
<svg version="1.1" id="Layer_1" xmlns="http://www.w3.org/2000/svg" xmlns:xlink="http://www.w3.org/1999/xlink" x="0px" y="0px"
	 viewBox="0 0 1900 500" style="enable-background:new 0 0 1900 500;" xml:space="preserve">
<style type="text/css">
	.st0{fill:#34679A;}
	.st1{fill:#33689B;}
	.st2{fill:#33669A;}
	.st3{fill:#988995;}
	.st4{fill:#B5A2AF;}
	.st5{fill:#88B5E1;}
	.st6{fill:#6699CC;}
</style>
<path class="st0" d="M819,184.1c-55.5,9.7-81.2,75.7-44.9,118.7c9.7,12.3,24.4,21.9,37.3,24.6c9.4,2,59.5,2.3,64.9,0.4
	c9.7-3.3,8.5-19.2,0.3-26.7c-12,0-65.8-0.7-63.7-4.1c-7.1-3.5-14.5-10.2-19.5-17.8c-10.7-16.3-8.5-36.5,5.8-52.8
	c10.2-11.6,21.2-14.5,55.5-14.6c19.9,0,25-1.2,27.3-6.8c3-7.2,0.7-16.5-4.9-19.8C874.9,184,824.1,183,819,184.1z"/>
<path class="st0" d="M947.1,186.6c-30,6.9-55.7,36-54.6,71.2c-0.5,36.8,27,67.3,62.6,71.8c36.8,6.3,73.9-21.7,81.4-57
	C1046.6,218.5,998.6,174.6,947.1,186.6z M974,211.2c49.7,10.5,49.1,82.6-0.9,92.6c-24.9,5.6-56.5-15.8-54.5-46.6
	C917.6,226,947.2,205.8,974,211.2z"/>
<path class="st1" d="M1231.3,147.2c-2.7,0.7-7.1,3.7-9.6,5.6c-0.2,19.5-0.2,39.6,0.3,60.4c0.5,20.9,1.4,41.2,2.6,60.8
	c1.1,5,3.3,12.3,7.8,20.2c9.3,16.2,22.1,24,25,25.7c9.2,5.4,17.9,7.6,22.9,8.3c15.2,2.2,25.8,3.6,30.2-6.9c0,0,0,0,0,0
	c0,0,1.7-3.3,0.5-7.9c-1.3-4.7-23-7.3-36.4-14.3c-6.9-3.7-15.6-10.7-22.7-25.7c-1.8-10.1-3.2-21.5-3.9-34c-0.6-10.8-0.5-20.9,0-29.9
	c14.1,0,42.6,0,56.7,0c7-6.2,9.3-17.2,1.5-23c-2.5-2.1-4.5-2.2-30.3-2.2h-27.6c-1.8-4.8,0.4-32.7-3.6-31.8
	C1239.5,150.9,1241.7,144.6,1231.3,147.2z"/>
<path class="st1" d="M1387.8,186.5c-24.7,5.4-44,23.3-52.6,49.1c-2.8,8.5-2.8,8.8-3.1,47.6c-0.2,44.7-0.4,43.7,8.3,46.2
	c5.7,1.5,11.3,0.3,14.6-3.4c1.9-2.1,2.1-5.4,2.6-41.3c0.4-25.7,1.1-40.1,2-42c0.7-1.6,3.3-6.2,5.7-10.1c15.2-25.3,47.6-29.9,70-10.6
	c6.6,5.3,8.2,6,12.2,5.7c4.8-0.4,6.8-1.6,9.3-5.3c11.5-17-20.2-32.7-35.3-35.9C1412.5,184.6,1396.7,184.6,1387.8,186.5z"/>
<path class="st0" d="M595.6,181.8c46.5-4.2,88.2,35.7,83.5,84.4c0,0,0,48.6,0,48.6c-0.5,20-29.6,19.2-30.7,0h-0.5
	c-36.6,23.8-76.1,20.1-108.1-11.9C498.6,254.2,536,183.4,595.6,181.8z M552.8,255.7c2.2,57.5,91.1,61.4,95.1,1
	C647.8,197.2,556.2,194.7,552.8,255.7z"/>
<path class="st0" d="M716.2,143.8c22.5-1.7,22.2,27.8,4.1,28.9C697.7,174.4,698.1,144.9,716.2,143.8z M719.2,184.1
	c8.5,0,13.4,5,14.7,14.9v119c-1.1,10-6.4,14.9-15.8,14.9c-8.5,0-13.4-5-14.7-14.9v-119C704.5,189.1,709.8,184.1,719.2,184.1z"/>
<path class="st0" d="M1124.5,185.4c39.1-5.2,81.6,34.7,80,73.5c0,0,0,56.5,0,56.5c-0.6,18.1-28.3,19-29.3,0
	c-0.5-43,8.9-98.1-46.3-103.1c-16.3,0-29.7,8.5-40,25.5c-9.9,13.5-5.4,59.9-6.3,78c-0.6,18.1-28.3,19-29.3,0c0,0,0-57.4,0-57.4
	C1052.6,223.8,1085.8,185.9,1124.5,185.4z"/>
<path class="st0" d="M1526.8,185.9c-30,6.9-55.7,36-54.6,71.2c-0.5,36.8,27,67.3,62.6,71.8c36.8,6.3,73.9-21.7,81.4-57
	C1626.3,217.8,1578.3,173.9,1526.8,185.9z M1553.7,210.5c49.7,10.5,49.1,82.6-0.9,92.6c-24.9,5.6-56.5-15.8-54.5-46.6
	C1497.3,225.3,1526.9,205,1553.7,210.5z"/>
<path class="st0" d="M1652.4,120.4c8.3,0,13.1,4.9,14.4,14.6v114.7c0,20.5,6.8,34.8,20.4,43c8,5.7,18,8.5,29.9,8.5
	c5,1.3,8.6,3.9,11,7.6c1,2.8,1.5,5.2,1.5,7.1c0,7.9-5.1,12.4-15.4,13.7h-4c-19.9,0-38.7-8.8-56.3-26.4c-11.3-15-16.9-29.2-16.9-42.5
	V135.1C1638,125.3,1643.2,120.4,1652.4,120.4z"/>
<g>
	<path class="st2" d="M414.4,298c-10.2,0-18.5-8.3-18.5-18.5v-57.1c0-10.2,8.3-18.5,18.5-18.5l0,0c10.2,0,18.5,8.3,18.5,18.5v57.1
		C432.8,289.7,424.6,298,414.4,298L414.4,298z"/>
	<path class="st3" d="M367.9,174.1c-10.2,0-18.5-8.3-18.5-18.5v-36.8c0-10.2,8.3-18.5,18.5-18.5l0,0c10.2,0,18.5,8.3,18.5,18.5v36.8
		C386.3,165.8,378.1,174.1,367.9,174.1L367.9,174.1z"/>
	<path class="st4" d="M414.8,194.9c-10.2,0-18.5-8.3-18.5-18.5v-12.3c0-10.2,8.3-18.5,18.5-18.5l0,0c10.2,0,18.5,8.3,18.5,18.5v12.3
		C433.2,186.6,425,194.9,414.8,194.9L414.8,194.9z"/>
	<path class="st5" d="M215.3,343.9c-10.2,0-18.5-8.3-18.5-18.5v-127c0-10.2,8.3-18.5,18.5-18.5l0,0c10.2,0,18.5,8.3,18.5,18.5v127
		C233.7,335.7,225.4,343.9,215.3,343.9L215.3,343.9z"/>
	<path class="st6" d="M166.7,293c-10.2,0-18.5-8.3-18.5-18.5v-45.8c0-10.2,8.3-18.5,18.5-18.5l0,0c10.2,0,18.5,8.3,18.5,18.5v45.8
		C185.1,284.7,176.9,293,166.7,293L166.7,293z"/>
	<path class="st3" d="M166.7,202.4c-10.2,0-18.5-8.3-18.5-18.5v-18.5c0-10.2,8.3-18.5,18.5-18.5l0,0c10.2,0,18.5,8.3,18.5,18.5V184
		C185.1,194.2,176.9,202.4,166.7,202.4L166.7,202.4z"/>
	<path class="st4" d="M215.3,164.8c-10.2,0-18.5-8.3-18.5-18.5v-32.2c0-10.2,8.3-18.5,18.5-18.5l0,0c10.2,0,18.5,8.3,18.5,18.5v32.2
		C233.7,156.5,225.4,164.8,215.3,164.8L215.3,164.8z"/>
	<path class="st4" d="M315.3,206.8c-10.2,0-18.5-8.3-18.5-18.5v-41.6c0-10.2,8.3-18.5,18.5-18.5l0,0c10.2,0,18.5,8.3,18.5,18.5v41.6
		C333.8,198.6,325.5,206.8,315.3,206.8L315.3,206.8z"/>
	<path class="st6" d="M315.3,399.6c-10.2,0-18.5-8.3-18.5-18.5V234.5c0-10.2,8.3-18.5,18.5-18.5l0,0c10.2,0,18.5,8.3,18.5,18.5
		v146.6C333.8,391.3,325.5,399.6,315.3,399.6L315.3,399.6z"/>
	<path class="st5" d="M364.8,348.8c-10.2,0-18.5-8.3-18.5-18.5V205.9c0-10.2,8.3-18.5,18.5-18.5l0,0c10.2,0,18.5,8.3,18.5,18.5
		v124.4C383.3,340.5,375,348.8,364.8,348.8L364.8,348.8z"/>
	<path class="st3" d="M265.3,147.3c-10.2,0-18.5-8.3-18.5-18.5v-20.8c0-10.2,8.3-18.5,18.5-18.5l0,0c10.2,0,18.5,8.3,18.5,18.5v20.8
		C283.8,139,275.5,147.3,265.3,147.3L265.3,147.3z"/>
	<path class="st2" d="M265.3,381.3c-10.2,0-18.5-8.3-18.5-18.5V172.2c0-10.2,8.3-18.5,18.5-18.5l0,0c10.2,0,18.5,8.3,18.5,18.5
		v190.7C283.8,373.1,275.5,381.3,265.3,381.3L265.3,381.3z"/>
</g>
</svg>
