<svg width="50" height="50" viewBox="0 0 50 50" fill="none" xmlns="http://www.w3.org/2000/svg">
<mask id="mask0_8353_88" style="mask-type:alpha" maskUnits="userSpaceOnUse" x="0" y="0" width="50" height="50">
<rect width="50" height="50" fill="#D9D9D9"/>
</mask>
<g mask="url(#mask0_8353_88)">
<path d="M37.4283 20.4006L35.9538 18.9022L39.5512 15.3287L41.0257 16.8032L37.4283 20.4006ZM5.2085 40.6251V38.5417H44.7918V40.6251H5.2085ZM23.9585 15.0641V10.0964H26.0418V15.0641H23.9585ZM12.572 20.3766L8.9986 16.7787L10.4731 15.3048L14.0705 18.9022L12.572 20.3766ZM15.4689 29.1667H34.5314C33.7328 27.2917 32.4762 25.7813 30.7616 24.6355C29.0467 23.4897 27.1262 22.9167 25.0002 22.9167C22.8741 22.9167 20.9536 23.4897 19.2387 24.6355C17.5241 25.7813 16.2675 27.2917 15.4689 29.1667ZM12.7408 31.2501C13.2213 28.2292 14.6161 25.7379 16.9252 23.7761C19.2342 21.8143 21.9259 20.8334 25.0002 20.8334C28.0745 20.8334 30.7661 21.8143 33.0752 23.7761C35.3842 25.7379 36.779 28.2292 37.2595 31.2501H12.7408Z" fill="#1C1B1F"/>
</g>
</svg>
