<svg width="50" height="50" viewBox="0 0 50 50" fill="none" xmlns="http://www.w3.org/2000/svg">
<mask id="mask0_8353_34" style="mask-type:alpha" maskUnits="userSpaceOnUse" x="0" y="0" width="50" height="50">
<rect width="50" height="50" fill="#D9D9D9"/>
</mask>
<g mask="url(#mask0_8353_34)">
<path d="M10.4168 20.0318H39.5835V13.7823C39.5835 13.4615 39.45 13.1675 39.183 12.9005C38.916 12.6335 38.622 12.5 38.3012 12.5H11.6991C11.3783 12.5 11.0844 12.6335 10.8174 12.9005C10.5503 13.1675 10.4168 13.4615 10.4168 13.7823V20.0318ZM11.6991 43.75C10.7401 43.75 9.9394 43.4288 9.29704 42.7865C8.65468 42.1441 8.3335 41.3434 8.3335 40.3844V13.7823C8.3335 12.8233 8.65468 12.0226 9.29704 11.3802C9.9394 10.7379 10.7401 10.4167 11.6991 10.4167H15.3845V5.76929H17.6283V10.4167H32.5325V5.76929H34.6158V10.4167H38.3012C39.2602 10.4167 40.0609 10.7379 40.7033 11.3802C41.3457 12.0226 41.6668 12.8233 41.6668 13.7823V24.7235C41.3276 24.5981 40.9844 24.5047 40.6371 24.4432C40.2899 24.3818 39.9387 24.3257 39.5835 24.275V22.1156H10.4168V40.3844C10.4168 40.7052 10.5503 40.9991 10.8174 41.2662C11.0844 41.5332 11.3783 41.6667 11.6991 41.6667H25.6653C25.7746 42.0566 25.9142 42.4186 26.084 42.7526C26.2535 43.0863 26.4304 43.4188 26.6147 43.75H11.6991ZM38.3012 45.8333C35.9804 45.8333 34.0113 45.0247 32.3939 43.4073C30.7766 41.7903 29.9679 39.8212 29.9679 37.5C29.9679 35.1788 30.7766 33.2097 32.3939 31.5927C34.0113 29.9754 35.9804 29.1667 38.3012 29.1667C40.6224 29.1667 42.5917 29.9754 44.209 31.5927C45.826 33.2097 46.6345 35.1788 46.6345 37.5C46.6345 39.8212 45.826 41.7903 44.209 43.4073C42.5917 45.0247 40.6224 45.8333 38.3012 45.8333ZM41.7512 42.0875L42.8887 40.9495L39.1028 37.1636V31.4906H37.5002V37.8365L41.7512 42.0875Z" fill="#1C1B1F"/>
</g>
</svg>
