<svg width="50" height="50" viewBox="0 0 50 50" fill="none" xmlns="http://www.w3.org/2000/svg">
<mask id="mask0_8353_46" style="mask-type:alpha" maskUnits="userSpaceOnUse" x="0" y="0" width="50" height="50">
<rect width="50" height="50" fill="#D9D9D9"/>
</mask>
<g mask="url(#mask0_8353_46)">
<path d="M28.1251 46.8752V35.0565L22.0673 29.2471L19.824 39.2148L7.45215 36.6992L7.88444 34.6554L17.8844 36.6992L21.7787 16.7789L15.6251 19.319V26.0419H13.5417V17.933L21.8511 14.4716C22.7459 14.1108 23.4063 13.8657 23.8324 13.7361C24.2584 13.6066 24.6476 13.5419 25.0001 13.5419C25.5424 13.5419 26.0459 13.6861 26.5105 13.9747C26.9751 14.2632 27.3584 14.6532 27.6605 15.1445L29.7438 18.4778C30.6199 19.8827 31.8304 21.094 33.3756 22.1117C34.9207 23.1294 36.6428 23.7183 38.5417 23.8783V25.9617C36.5973 25.8283 34.6468 25.2174 32.6902 24.1289C30.7339 23.0403 29.0386 21.3408 27.6042 19.0304L25.7532 28.4455L30.2084 32.7726V46.8752H28.1251ZM28.1251 10.8174C27.1396 10.8174 26.3056 10.4763 25.623 9.79396C24.9407 9.11132 24.5995 8.2773 24.5995 7.29188C24.5995 6.30646 24.9407 5.47244 25.623 4.7898C26.3056 4.1075 27.1396 3.76636 28.1251 3.76636C29.1105 3.76636 29.9445 4.1075 30.6271 4.7898C31.3094 5.47244 31.6506 6.30646 31.6506 7.29188C31.6506 8.2773 31.3094 9.11132 30.6271 9.79396C29.9445 10.4763 29.1105 10.8174 28.1251 10.8174Z" fill="#1C1B1F"/>
</g>
</svg>
