<svg width="50" height="50" viewBox="0 0 50 50" fill="none" xmlns="http://www.w3.org/2000/svg">
<mask id="mask0_8353_94" style="mask-type:alpha" maskUnits="userSpaceOnUse" x="0" y="0" width="50" height="50">
<rect width="50" height="50" fill="#D9D9D9"/>
</mask>
<g mask="url(#mask0_8353_94)">
<path d="M25.0068 43.75C22.4141 43.75 19.9764 43.258 17.6937 42.274C15.4115 41.2899 13.426 39.9545 11.7375 38.2677C10.049 36.5809 8.71233 34.5972 7.7276 32.3167C6.74253 30.0365 6.25 27.5998 6.25 25.0068C6.25 22.4141 6.74201 19.9764 7.72604 17.6937C8.71007 15.4115 10.0455 13.426 11.7323 11.7375C13.4191 10.049 15.4028 8.71233 17.6833 7.7276C19.9635 6.74253 22.4002 6.25 24.9932 6.25C27.5859 6.25 30.0236 6.74202 32.3063 7.72604C34.5885 8.71007 36.574 10.0455 38.2625 11.7323C39.951 13.4191 41.2877 15.4028 42.2724 17.6833C43.2575 19.9635 43.75 22.4002 43.75 24.9932C43.75 27.5859 43.258 30.0236 42.274 32.3062C41.2899 34.5885 39.9545 36.574 38.2677 38.2625C36.5809 39.951 34.5972 41.2877 32.3167 42.2724C30.0365 43.2575 27.5998 43.75 25.0068 43.75ZM26.0417 41.6307C30.334 41.3502 34.0113 39.6427 37.0734 36.5083C40.1356 33.374 41.6667 29.5378 41.6667 25C41.6667 20.4622 40.149 16.6394 37.1135 13.5318C34.0778 10.4241 30.3872 8.7033 26.0417 8.36927V41.6307Z" fill="#1C1B1F"/>
</g>
</svg>
