<svg width="50" height="50" viewBox="0 0 50 50" fill="none" xmlns="http://www.w3.org/2000/svg">
<mask id="mask0_8353_18" style="mask-type:alpha" maskUnits="userSpaceOnUse" x="0" y="0" width="50" height="50">
<rect width="50" height="50" fill="#D9D9D9"/>
</mask>
<g mask="url(#mask0_8353_18)">
<path d="M34.6153 44.3111L31.971 41.6668H27.5637V37.2595L24.9195 34.6158L27.5637 31.9715V27.5642H31.971L34.6153 24.92L37.259 27.5642H41.6663V31.9715L44.3106 34.6158L41.6663 37.2595V41.6668H37.259L34.6153 44.3111ZM34.6153 39.9038C36.084 39.9038 37.3327 39.3897 38.3611 38.3616C39.3893 37.3331 39.9033 36.0845 39.9033 34.6158C39.9033 33.1467 39.3893 31.8979 38.3611 30.8694C37.3327 29.8413 36.084 29.3272 34.6153 29.3272V39.9038ZM40.8773 20.0325H38.7174C37.708 17.2172 35.9693 14.9108 33.5012 13.1132C31.0332 11.3156 28.1993 10.4168 24.9997 10.4168C20.9372 10.4168 17.491 11.8318 14.6611 14.6616C11.8313 17.4915 10.4163 20.9377 10.4163 25.0002C10.4163 27.9276 11.1875 30.5599 12.7299 32.897C14.2726 35.2338 16.2792 36.9819 18.7497 38.1413V31.2502H20.833V41.6668H10.4163V39.5835H17.3153C14.6552 38.1946 12.4931 36.2147 10.8288 33.6439C9.16495 31.0731 8.33301 28.1918 8.33301 25.0002C8.33301 22.6877 8.76773 20.5217 9.63717 18.5022C10.5066 16.4828 11.6965 14.7179 13.207 13.2075C14.7174 11.697 16.4823 10.5071 18.5018 9.63766C20.5212 8.76822 22.6872 8.3335 24.9997 8.3335C28.7577 8.3335 32.0757 9.43332 34.9538 11.633C37.8316 13.8323 39.8061 16.6321 40.8773 20.0325Z" fill="#1C1B1F"/>
</g>
</svg>
