<svg width="50" height="50" viewBox="0 0 50 50" fill="none" xmlns="http://www.w3.org/2000/svg">
<mask id="mask0_8353_19" style="mask-type:alpha" maskUnits="userSpaceOnUse" x="0" y="0" width="50" height="50">
<rect width="50" height="50" fill="#D9D9D9"/>
</mask>
<g mask="url(#mask0_8353_19)">
<path d="M24.9981 25.0002C24.7026 25.0002 24.4554 24.9004 24.2564 24.7008C24.0575 24.5011 23.958 24.2537 23.958 23.9586V6.9716C23.958 6.67646 24.058 6.42906 24.258 6.22941C24.458 6.02976 24.7058 5.92993 25.0012 5.92993C25.2967 5.92993 25.5439 6.02976 25.7429 6.22941C25.9419 6.42906 26.0413 6.67646 26.0413 6.9716V23.9586C26.0413 24.2537 25.9413 24.5011 25.7413 24.7008C25.5413 24.9004 25.2936 25.0002 24.9981 25.0002ZM25.0018 41.6669C22.69 41.6669 20.5238 41.2322 18.5033 40.3628C16.4828 39.4933 14.7174 38.3034 13.207 36.793C11.6966 35.2825 10.5066 33.5176 9.63717 31.4982C8.76773 29.4787 8.33301 27.3127 8.33301 25.0002C8.33301 22.9624 8.7002 20.9985 9.43457 19.1086C10.1693 17.219 11.2097 15.5211 12.5559 14.0148C12.742 13.769 12.9788 13.6548 13.2663 13.6721C13.5538 13.6895 13.8148 13.8154 14.0492 14.0497C14.2474 14.248 14.3292 14.478 14.2945 14.7398C14.2597 15.0016 14.149 15.2555 13.9622 15.5013C12.8108 16.8044 11.932 18.2759 11.3257 19.9159C10.7195 21.5561 10.4163 23.2509 10.4163 25.0002C10.4163 29.0627 11.8313 32.5089 14.6611 35.3388C17.491 38.1687 20.9372 39.5836 24.9997 39.5836C29.0622 39.5836 32.5084 38.1687 35.3382 35.3388C38.1681 32.5089 39.583 29.0627 39.583 25.0002C39.583 23.2551 39.2818 21.5575 38.6794 19.9075C38.0773 18.2572 37.1926 16.7803 36.0252 15.4768C35.8384 15.2393 35.7276 14.9844 35.6929 14.7122C35.6582 14.4403 35.7382 14.2079 35.933 14.0148C36.1629 13.785 36.4193 13.6681 36.7023 13.6643C36.9856 13.6601 37.2247 13.777 37.4195 14.0148C38.7736 15.5211 39.82 17.2162 40.5585 19.1002C41.2971 20.9843 41.6663 22.9509 41.6663 25.0002C41.6663 27.3127 41.2316 29.4787 40.3622 31.4982C39.4927 33.5176 38.3028 35.2825 36.7924 36.793C35.282 38.3034 33.5172 39.4933 31.4981 40.3628C29.4794 41.2322 27.3139 41.6669 25.0018 41.6669Z" fill="#14293D"/>
</g>
</svg>
