<svg width="50" height="50" viewBox="0 0 50 50" fill="none" xmlns="http://www.w3.org/2000/svg">
<mask id="mask0_8353_76" style="mask-type:alpha" maskUnits="userSpaceOnUse" x="0" y="0" width="50" height="50">
<rect width="50" height="50" fill="#D9D9D9"/>
</mask>
<g mask="url(#mask0_8353_76)">
<path d="M24.9198 43.75C22.3663 43.75 19.9559 43.2566 17.6885 42.2698C15.4208 41.2826 13.441 39.9431 11.749 38.251C10.0569 36.559 8.71736 34.5726 7.73021 32.2917C6.7434 30.0108 6.25 27.5802 6.25 25C6.25 22.3851 6.75417 19.9372 7.7625 17.6562C8.77083 15.3753 10.145 13.3908 11.8849 11.7026C13.6252 10.0148 15.6665 8.68403 18.0089 7.71042C20.3512 6.7368 22.8472 6.25 25.4969 6.25C27.9274 6.25 30.2418 6.66059 32.4401 7.48177C34.638 8.3033 36.5724 9.44254 38.2432 10.8995C39.9137 12.3564 41.2491 14.0925 42.2495 16.1078C43.2498 18.1231 43.75 20.3207 43.75 22.7005C43.75 25.9189 42.8219 28.4957 40.9656 30.4307C39.1094 32.3658 36.5653 33.3333 33.3333 33.3333H29.6396C28.766 33.3333 28.0347 33.6339 27.4458 34.2349C26.8569 34.8359 26.5625 35.5611 26.5625 36.4104C26.5625 37.2809 26.8229 38.02 27.3437 38.6276C27.8646 39.2352 28.125 39.9358 28.125 40.7292C28.125 41.7441 27.8411 42.5014 27.2734 43.001C26.7061 43.5003 25.9215 43.75 24.9198 43.75ZM13.5417 26.0417C14.124 26.0417 14.6167 25.8399 15.0198 25.4365C15.4233 25.0333 15.625 24.5406 15.625 23.9583C15.625 23.376 15.4233 22.8833 15.0198 22.4802C14.6167 22.0767 14.124 21.875 13.5417 21.875C12.9594 21.875 12.4667 22.0767 12.0635 22.4802C11.6601 22.8833 11.4583 23.376 11.4583 23.9583C11.4583 24.5406 11.6601 25.0333 12.0635 25.4365C12.4667 25.8399 12.9594 26.0417 13.5417 26.0417ZM19.7917 17.7083C20.374 17.7083 20.8667 17.5066 21.2698 17.1031C21.6733 16.7 21.875 16.2073 21.875 15.625C21.875 15.0427 21.6733 14.55 21.2698 14.1469C20.8667 13.7434 20.374 13.5417 19.7917 13.5417C19.2094 13.5417 18.7167 13.7434 18.3135 14.1469C17.9101 14.55 17.7083 15.0427 17.7083 15.625C17.7083 16.2073 17.9101 16.7 18.3135 17.1031C18.7167 17.5066 19.2094 17.7083 19.7917 17.7083ZM30.2083 17.7083C30.7906 17.7083 31.2833 17.5066 31.6865 17.1031C32.0899 16.7 32.2917 16.2073 32.2917 15.625C32.2917 15.0427 32.0899 14.55 31.6865 14.1469C31.2833 13.7434 30.7906 13.5417 30.2083 13.5417C29.626 13.5417 29.1333 13.7434 28.7302 14.1469C28.3267 14.55 28.125 15.0427 28.125 15.625C28.125 16.2073 28.3267 16.7 28.7302 17.1031C29.1333 17.5066 29.626 17.7083 30.2083 17.7083ZM36.4583 26.0417C37.0406 26.0417 37.5333 25.8399 37.9365 25.4365C38.3399 25.0333 38.5417 24.5406 38.5417 23.9583C38.5417 23.376 38.3399 22.8833 37.9365 22.4802C37.5333 22.0767 37.0406 21.875 36.4583 21.875C35.876 21.875 35.3833 22.0767 34.9802 22.4802C34.5767 22.8833 34.375 23.376 34.375 23.9583C34.375 24.5406 34.5767 25.0333 34.9802 25.4365C35.3833 25.8399 35.876 26.0417 36.4583 26.0417ZM24.9198 41.6667C25.2858 41.6667 25.5642 41.5865 25.7552 41.426C25.9462 41.266 26.0417 41.0337 26.0417 40.7292C26.0417 40.2431 25.7812 39.7236 25.2604 39.1708C24.7396 38.6177 24.4792 37.7082 24.4792 36.4422C24.4792 34.9304 24.9826 33.6872 25.9896 32.7125C26.9965 31.7375 28.2292 31.25 29.6875 31.25H33.3333C35.9455 31.25 37.9875 30.4814 39.4594 28.9443C40.9309 27.4071 41.6667 25.3259 41.6667 22.7005C41.6667 18.4724 40.0408 15.0208 36.7891 12.3458C33.537 9.67083 29.7729 8.33333 25.4969 8.33333C20.6944 8.33333 16.6333 9.94792 13.3135 13.1771C9.9934 16.4062 8.33333 20.3472 8.33333 25C8.33333 29.6181 9.9566 33.5503 13.2031 36.7969C16.4497 40.0434 20.3552 41.6667 24.9198 41.6667Z" fill="#1C1B1F"/>
</g>
</svg>
