<svg width="50" height="50" viewBox="0 0 50 50" fill="none" xmlns="http://www.w3.org/2000/svg">
<mask id="mask0_8353_70" style="mask-type:alpha" maskUnits="userSpaceOnUse" x="0" y="0" width="50" height="50">
<rect width="50" height="50" fill="#D9D9D9"/>
</mask>
<g mask="url(#mask0_8353_70)">
<path d="M21.3464 28.6537C20.0214 27.3291 18.8322 25.9122 17.7787 24.4032C16.7249 22.8942 15.8027 21.289 15.012 19.5876C14.5179 20.4209 14.1581 21.2897 13.9324 22.1938C13.7067 23.0976 13.5938 24.0331 13.5938 25.0001C13.5938 28.1716 14.702 30.8655 16.9183 33.0818C19.1346 35.2982 21.8285 36.4063 25.0001 36.4063C25.9403 36.4063 26.8758 36.2848 27.8063 36.0417C28.7372 35.7987 29.606 35.4475 30.4126 34.9881C28.7112 34.1975 27.106 33.2752 25.5969 32.2214C24.0879 31.168 22.6711 29.9787 21.3464 28.6537ZM22.8324 27.2199C24.4699 28.857 26.2888 30.2893 28.2891 31.5167C30.2898 32.7438 32.42 33.7313 34.6798 34.4792C33.4242 35.7692 31.9631 36.7688 30.2964 37.4782C28.6298 38.1872 26.8817 38.5417 25.0522 38.5417C21.2799 38.5417 18.0799 37.2278 15.4521 34.6001C12.8244 31.9723 11.5105 28.7723 11.5105 25.0001C11.5105 23.1706 11.865 21.4225 12.574 19.7558C13.2834 18.0891 14.2831 16.628 15.573 15.3725C16.3209 17.6322 17.3084 19.7624 18.5355 21.7631C19.7629 23.7634 21.1952 25.5824 22.8324 27.2199ZM37.5761 30.1683C37.2258 30.0732 36.8798 29.9686 36.5381 29.8548C36.1964 29.7405 35.856 29.6247 35.5167 29.5074C35.8212 28.8022 36.0544 28.0683 36.2162 27.3058C36.3777 26.5433 36.4584 25.7796 36.4584 25.0147C36.4584 21.8403 35.3398 19.1346 33.1027 16.8975C30.8655 14.6603 28.1598 13.5417 24.9855 13.5417C24.2206 13.5417 23.4568 13.6159 22.6943 13.7641C21.9318 13.9124 21.198 14.1388 20.4928 14.4433C20.3754 14.1041 20.2671 13.7752 20.1678 13.4568C20.0688 13.1381 19.9742 12.8112 19.8839 12.4761C20.6905 12.1369 21.5278 11.8824 22.3959 11.7126C23.264 11.5431 24.1494 11.4584 25.0522 11.4584C28.8244 11.4584 32.0244 12.7723 34.6522 15.4001C37.2799 18.0278 38.5938 21.2278 38.5938 25.0001C38.5938 25.9028 38.5091 26.7883 38.3396 27.6563C38.1699 28.5244 37.9153 29.3617 37.5761 30.1683ZM23.9584 6.811V1.84277H26.0417V6.811H23.9584ZM23.9584 48.1574V43.1891H26.0417V48.1574H23.9584ZM38.6178 12.8688L37.1313 11.3824L40.5568 7.96882L42.0433 9.44329L38.6178 12.8688ZM9.44329 42.0313L7.95684 40.5568L11.3824 37.1313L12.8688 38.6178L9.44329 42.0313ZM43.1891 26.0417V23.9584H48.1574V26.0417H43.1891ZM1.84277 26.0417V23.9584H6.811V26.0417H1.84277ZM40.5568 42.0433L37.1313 38.6178L38.6178 37.1313L42.0313 40.5568L40.5568 42.0433ZM11.3824 12.8688L7.96882 9.44329L9.44329 7.95684L12.8688 11.3824L11.3824 12.8688Z" fill="#1C1B1F"/>
</g>
</svg>
